<svg width="24" height="20" viewBox="0 0 24 20" fill="none" xmlns="http://www.w3.org/2000/svg">
    <path fill-rule="evenodd" clip-rule="evenodd"
          d="M17.6934 13.4804C18.5225 12.4517 19 11.2437 19 9.95137C19 6.19745 14.9706 3.1543 10 3.1543C5.02944 3.1543 1 6.19745 1 9.95137C1 13.7053 5.02944 16.7484 10 16.7484C10.5712 16.7484 11.1299 16.7083 11.6715 16.6314V18.5452C11.6715 18.8602 12.0119 19.0549 12.2764 18.8839C14.8835 17.1984 16.7679 14.8124 17.6535 13.5501C17.6695 13.5272 17.6828 13.5039 17.6934 13.4804Z"
          fill="#2B2B2B"/>
    <path d="M17.6934 13.4804L17.2156 13.0953L17.1666 13.1562L17.1343 13.2275L17.6934 13.4804ZM11.6715 16.6314H12.2852V15.9246L11.5853 16.0239L11.6715 16.6314ZM12.2764 18.8839L12.6095 19.3992L12.2764 18.8839ZM17.6535 13.5501L18.1558 13.9026L18.1558 13.9026L17.6535 13.5501ZM18.3864 9.95137C18.3864 11.0859 17.9686 12.1611 17.2156 13.0953L18.1712 13.8655C19.0764 12.7423 19.6136 11.4015 19.6136 9.95137H18.3864ZM10 3.76793C12.3643 3.76793 14.4816 4.49244 15.9941 5.63479C17.5064 6.77688 18.3864 8.30903 18.3864 9.95137H19.6136C19.6136 7.8398 18.4789 5.9734 16.7338 4.65544C14.989 3.33773 12.6062 2.54066 10 2.54066V3.76793ZM1.61363 9.95137C1.61363 8.30903 2.49361 6.77688 4.00586 5.63479C5.51844 4.49244 7.63565 3.76793 10 3.76793V2.54066C7.39378 2.54066 5.011 3.33773 3.26622 4.65544C1.52111 5.9734 0.386367 7.8398 0.386367 9.95137H1.61363ZM10 16.1348C7.63565 16.1348 5.51844 15.4103 4.00586 14.268C2.49361 13.1259 1.61363 11.5937 1.61363 9.95137H0.386367C0.386367 12.0629 1.52111 13.9293 3.26622 15.2473C5.011 16.565 7.39378 17.3621 10 17.3621V16.1348ZM11.5853 16.0239C11.0723 16.0967 10.5424 16.1348 10 16.1348V17.3621C10.5999 17.3621 11.1875 17.3199 11.7577 17.239L11.5853 16.0239ZM12.2852 18.5452V16.6314H11.0579V18.5452H12.2852ZM11.9432 18.3686C12.1089 18.2615 12.2852 18.4003 12.2852 18.5452H11.0579C11.0579 19.3202 11.9149 19.8483 12.6095 19.3992L11.9432 18.3686ZM17.1511 13.1977C16.2842 14.4333 14.4538 16.7455 11.9432 18.3686L12.6095 19.3992C15.3133 17.6513 17.2515 15.1914 18.1558 13.9026L17.1511 13.1977ZM17.1343 13.2275C17.1399 13.2151 17.1458 13.2052 17.1511 13.1977L18.1558 13.9026C18.1932 13.8492 18.2257 13.7926 18.2525 13.7333L17.1343 13.2275Z"
          fill="#2B2B2B"/>
    <rect x="14.5" y="0.5" width="9" height="9" rx="4.5" fill="#F04856"/>
    <rect x="14.5" y="0.5" width="9" height="9" rx="4.5" stroke="white"/>
</svg>
