<svg width="20" height="18" viewBox="0 0 20 18" fill="none" xmlns="http://www.w3.org/2000/svg">
    <path fill-rule="evenodd" clip-rule="evenodd"
          d="M17.6934 11.4804C18.5225 10.4517 19 9.24366 19 7.95137C19 4.19745 14.9706 1.1543 10 1.1543C5.02944 1.1543 1 4.19745 1 7.95137C1 11.7053 5.02944 14.7484 10 14.7484C10.5712 14.7484 11.1299 14.7083 11.6715 14.6314V16.5452C11.6715 16.8602 12.0119 17.0549 12.2764 16.8839C14.8835 15.1984 16.7679 12.8124 17.6535 11.5501C17.6695 11.5272 17.6828 11.5039 17.6934 11.4804Z"
          fill="#2B2B2B"/>
    <path d="M17.6934 11.4804L17.2156 11.0953L17.1666 11.1562L17.1343 11.2275L17.6934 11.4804ZM11.6715 14.6314H12.2852V13.9246L11.5853 14.0239L11.6715 14.6314ZM12.2764 16.8839L12.6095 17.3992L12.2764 16.8839ZM17.6535 11.5501L18.1558 11.9026L18.1558 11.9026L17.6535 11.5501ZM18.3864 7.95137C18.3864 9.08587 17.9686 10.1611 17.2156 11.0953L18.1712 11.8655C19.0764 10.7423 19.6136 9.40145 19.6136 7.95137H18.3864ZM10 1.76793C12.3643 1.76793 14.4816 2.49244 15.9941 3.63479C17.5064 4.77688 18.3864 6.30903 18.3864 7.95137H19.6136C19.6136 5.8398 18.4789 3.9734 16.7338 2.65544C14.989 1.33773 12.6062 0.540664 10 0.540664V1.76793ZM1.61363 7.95137C1.61363 6.30903 2.49361 4.77688 4.00586 3.63479C5.51844 2.49244 7.63565 1.76793 10 1.76793V0.540664C7.39378 0.540664 5.011 1.33773 3.26622 2.65544C1.52111 3.9734 0.386367 5.8398 0.386367 7.95137H1.61363ZM10 14.1348C7.63565 14.1348 5.51844 13.4103 4.00586 12.268C2.49361 11.1259 1.61363 9.59372 1.61363 7.95137H0.386367C0.386367 10.0629 1.52111 11.9293 3.26622 13.2473C5.011 14.565 7.39378 15.3621 10 15.3621V14.1348ZM11.5853 14.0239C11.0723 14.0967 10.5424 14.1348 10 14.1348V15.3621C10.5999 15.3621 11.1875 15.3199 11.7577 15.239L11.5853 14.0239ZM12.2852 16.5452V14.6314H11.0579V16.5452H12.2852ZM11.9432 16.3686C12.1089 16.2615 12.2852 16.4003 12.2852 16.5452H11.0579C11.0579 17.3202 11.9149 17.8483 12.6095 17.3992L11.9432 16.3686ZM17.1511 11.1977C16.2842 12.4333 14.4538 14.7455 11.9432 16.3686L12.6095 17.3992C15.3133 15.6513 17.2515 13.1914 18.1558 11.9026L17.1511 11.1977ZM17.1343 11.2275C17.1399 11.2151 17.1458 11.2052 17.1511 11.1977L18.1558 11.9026C18.1932 11.8492 18.2257 11.7926 18.2525 11.7333L17.1343 11.2275Z"
          fill="#2B2B2B"/>
</svg>
