<svg width="20" height="18" viewBox="0 0 20 18" fill="none" xmlns="http://www.w3.org/2000/svg">
    <path d="M17.6934 11.4804L17.2263 11.1039L17.1783 11.1634L17.1468 11.2331L17.6934 11.4804ZM11.6715 14.6314H12.2715V13.9403L11.5873 14.0374L11.6715 14.6314ZM12.2764 16.8839L12.6021 17.3878L12.2764 16.8839ZM17.6535 11.5501L18.1446 11.8947L18.1446 11.8947L17.6535 11.5501ZM18.4 7.95137C18.4 9.08938 17.9809 10.1676 17.2263 11.1039L18.1606 11.8569C19.0641 10.7359 19.6 9.39794 19.6 7.95137H18.4ZM10 1.7543C12.367 1.7543 14.4872 2.47962 16.0024 3.62391C17.5172 4.76796 18.4 6.30381 18.4 7.95137H19.6C19.6 5.84501 18.4681 3.98233 16.7256 2.66632C14.9834 1.35056 12.6035 0.554297 10 0.554297V1.7543ZM1.6 7.95137C1.6 6.30381 2.48281 4.76796 3.99764 3.62391C5.5128 2.47962 7.63297 1.7543 10 1.7543V0.554297C7.39647 0.554297 5.01664 1.35056 3.27444 2.66632C1.53191 3.98233 0.4 5.84501 0.4 7.95137H1.6ZM10 14.1484C7.63297 14.1484 5.5128 13.4231 3.99764 12.2788C2.48281 11.1348 1.6 9.59893 1.6 7.95137H0.4C0.4 10.0577 1.53191 11.9204 3.27444 13.2364C5.01664 14.5522 7.39647 15.3484 10 15.3484V14.1484ZM11.5873 14.0374C11.0736 14.1102 10.543 14.1484 10 14.1484V15.3484C10.5993 15.3484 11.1862 15.3063 11.7558 15.2255L11.5873 14.0374ZM12.2715 16.5452V14.6314H11.0715V16.5452H12.2715ZM11.9506 16.38C12.0192 16.3357 12.1079 16.3394 12.1696 16.3743C12.2291 16.4078 12.2715 16.4741 12.2715 16.5452H11.0715C11.0715 17.31 11.917 17.8307 12.6021 17.3878L11.9506 16.38ZM17.1623 11.2055C16.295 12.4418 14.4633 14.7556 11.9506 16.38L12.6021 17.3878C15.3037 15.6412 17.2408 13.183 18.1446 11.8947L17.1623 11.2055ZM17.1468 11.2331C17.152 11.2215 17.1575 11.2124 17.1623 11.2055L18.1446 11.8947C18.1816 11.842 18.2136 11.7862 18.2401 11.7277L17.1468 11.2331Z"
          fill="#2B2B2B"/>
</svg>
