<svg width="24" height="20" viewBox="0 0 24 20" fill="none" xmlns="http://www.w3.org/2000/svg">
    <path fill-rule="evenodd" clip-rule="evenodd"
          d="M3.99803 5.6243C2.4832 6.76835 1.60039 8.3042 1.60039 9.95176C1.60039 11.5993 2.4832 13.1352 3.99803 14.2792C5.51319 15.4235 7.63336 16.1488 10.0004 16.1488C10.5434 16.1488 11.074 16.1106 11.5876 16.0378L12.2719 15.9407V18.1668C14.6117 16.5642 16.3209 14.4038 17.1541 13.2181L17.1787 13.1638L17.2267 13.1043C17.9813 12.168 18.4004 11.0898 18.4004 9.95176C18.4004 8.3042 17.5176 6.76835 16.0028 5.6243C14.4876 4.48001 12.3674 3.75469 10.0004 3.75469C7.63336 3.75469 5.51319 4.48001 3.99803 5.6243ZM3.27483 4.66671C5.01703 3.35095 7.39686 2.55469 10.0004 2.55469C12.6039 2.55469 14.9838 3.35095 16.726 4.66671C18.4685 5.98272 19.6004 7.8454 19.6004 9.95176C19.6004 11.3779 19.0795 12.6985 18.199 13.8097C18.1824 13.839 18.1644 13.8675 18.145 13.8951C17.2412 15.1834 15.3041 17.6416 12.6025 19.3882C11.9174 19.8311 11.0719 19.3103 11.0719 18.5456V17.3034C10.72 17.3334 10.3624 17.3488 10.0004 17.3488C7.39686 17.3488 5.01703 16.5526 3.27483 15.2368C1.5323 13.9208 0.400391 12.0581 0.400391 9.95176C0.400391 7.8454 1.5323 5.98272 3.27483 4.66671Z"
          fill="#2B2B2B"/>
    <rect x="14.5" y="0.5" width="9" height="9" rx="4.5" fill="#F04856"/>
    <rect x="14.5" y="0.5" width="9" height="9" rx="4.5" stroke="white"/>
</svg>
