<svg width="160" height="159" viewBox="0 0 160 159" fill="none" xmlns="http://www.w3.org/2000/svg">
    <g clip-path="url(#clip0_1106_12653)">
        <path d="M159.74 44.41L139.74 47.73L140.06 0L6.33002 0.429932L7.46002 17.35L0 17.71L7.19 99.27L36.53 93.51L42.69 158.33L123.46 130.42L119.04 154.74L125.33 147.58L155.69 113.32L159.74 44.41Z"
              fill="black"/>
        <path d="M136.911 51.3499L137.971 2.12988L12.8008 4.34988L17.9608 87.2699L47.5308 81.5399L52.4408 144.5L133.891 117.89L129.691 138.38L152.761 112.06L158.131 46.2499L136.911 51.3499Z"
              fill="white"/>
        <path d="M42.8001 72.6505L43.4901 72.2705V72.3505C42.3701 73.7405 40.4901 74.3505 39.0901 74.9905L32.9702 76.0704C32.1566 76.0697 31.3453 75.9825 30.5501 75.8104C25.1201 74.6304 24.1702 69.2705 23.9102 64.2205V38.2205C23.9102 37.0305 24.1701 31.6304 24.1701 30.6904C24.3501 27.1804 24.8601 23.5205 26.7601 20.3805C26.2514 22.5492 25.9633 24.7638 25.9001 26.9905C25.9001 27.4105 25.9001 28.6905 25.8101 30.2305C25.7201 31.9505 25.6401 33.9205 25.6401 34.5205V60.6105C25.9001 66.1805 26.9301 72.1205 33.2301 73.4805C34.2785 73.7013 35.3491 73.7986 36.4201 73.7705L42.8001 72.6505ZM36.4201 72.0604C35.606 72.0697 34.7937 71.9824 34.0001 71.8004C28.5701 70.6304 27.6201 65.2705 27.3601 60.2205V34.2205C27.3601 33.0305 27.6201 27.6304 27.6201 26.7004C27.8801 21.8104 28.8301 16.7005 33.0601 13.0005C36.3301 10.2105 38.8301 10.0005 42.0601 9.73047C42.3121 9.81168 42.5754 9.85218 42.8401 9.85046C44.5139 10.2728 46.0373 11.1523 47.2401 12.3905C49.8301 14.7405 49.8301 19.3305 49.8301 22.9905C49.8301 24.4305 50.0901 26.2604 49.5701 27.7104L49.4001 28.0005L42.5801 29.1904L42.3201 28.9805V23.3705C42.3201 22.6905 42.0601 20.0105 42.0601 19.5005C42.0601 18.6505 41.3701 18.2604 40.6901 17.9604C40.1502 17.8394 39.5901 17.8394 39.0501 17.9604C36.6301 18.3804 36.2001 20.5005 36.2001 22.6205C36.2001 34.2705 35.9401 45.8805 35.9401 57.5205V58.9705C35.9401 59.3905 36.2001 61.6405 36.2001 62.1505C36.3979 62.8428 36.838 63.441 37.4402 63.8357C38.0424 64.2304 38.7664 64.3953 39.4801 64.3004C40.6111 63.9576 41.6642 63.3972 42.5801 62.6505L42.8401 62.3505C43.0901 61.8271 43.3775 61.3225 43.7001 60.8405V48.6804C43.7001 48.5104 44.2201 48.4205 44.3901 48.3905L44.9102 48.3004C45.9102 48.1404 49.5701 47.6605 50.5201 47.4905C50.7701 47.4905 51.2902 49.2204 51.4702 49.7104V52.9304C51.4702 58.2904 51.0301 63.7205 46.9801 68.3405C45.8601 69.7305 43.9801 70.3405 42.5801 70.9805L36.4201 72.0604ZM37.8801 22.3304C37.8801 21.0604 38.0501 19.8404 39.0001 19.6704C39.2548 19.6258 39.5154 19.6258 39.7701 19.6704C40.4601 20.2304 40.2001 20.2704 40.3801 21.6704C40.4601 22.4204 40.5501 23.4204 40.5501 23.6704V29.9604L41.8401 30.9604L46.3301 30.1704C46.3318 30.6785 46.2437 31.183 46.0701 31.6605L45.9001 31.9504L39.0801 33.1405L38.8201 32.9304V27.3204C38.8201 26.6404 38.5601 23.9704 38.5601 23.4604C38.5368 23.2337 38.4639 23.0149 38.3463 22.8196C38.2288 22.6243 38.0696 22.4572 37.8801 22.3304ZM41.4102 52.3304L41.9301 52.2405V60.6505L41.4102 61.5905L41.0701 61.7405H41.1501L40.2001 62.3304V52.7305C40.2001 52.5605 40.7201 52.4704 40.8901 52.4404L41.4102 52.3304Z"
              fill="black"/>
        <path d="M54.5491 65.03L55.6191 65.9L59.0091 65.4299V66.3599C59.0091 66.5399 58.5691 66.74 58.3891 66.78H58.0691C56.8091 67 53.5991 67.4399 53.5991 67.4399L53.2891 67.1899V55.1899C53.2891 51.7799 53.4791 35.19 53.4791 31.78C53.4791 31.1 53.5991 28.2299 53.5991 27.6099V26.5499C53.5991 25.8699 53.7291 24.2999 53.7291 24.2999L53.9191 24.14L54.8591 23.9799V24.91C54.8591 25.16 54.7991 26.2199 54.7991 26.8399C54.7391 27.7199 54.7391 28.7099 54.7391 29.0899C54.7391 30.8199 54.6691 35.8499 54.6091 40.8199C54.5491 45.7899 54.5491 50.8199 54.5491 52.4899V65.03ZM55.8091 52.3499C55.8091 48.9399 55.9891 32.3499 55.9891 28.9399C55.9891 28.2599 56.1191 25.39 56.1191 24.77V23.7099C56.1191 23.0299 56.2491 21.4599 56.2491 21.4599L56.4291 21.2999L61.7191 20.38C61.8391 20.38 62.0291 20.76 62.0291 20.76C62.0291 21.25 62.2191 23.2699 62.2191 23.6999V24.01C62.2191 27.85 62.0291 31.48 62.0291 35.27V38.6799C62.0291 38.8599 62.3491 39.2399 62.5391 39.2099L66.1891 38.5699C66.3057 38.5399 66.4104 38.475 66.489 38.3839C66.5677 38.2927 66.6165 38.1796 66.6291 38.0599C66.6291 36.1399 66.8091 27.18 66.8091 25.25C66.8091 24.51 66.9391 21.14 66.9391 20.4C67.1291 19.87 67.6291 19.65 67.9391 19.29C68.3791 19.65 72.9391 18.4199 72.7191 19.1999V31.1999C72.7191 35.2899 72.3991 54.38 72.2091 58.51C72.2743 59.2362 72.0985 59.9635 71.7091 60.5799C71.7091 60.5799 71.0791 61.19 71.0791 61.37V61.9899L70.9591 62.14L67.1191 62.8099L66.7991 62.5499V55.6699C66.7991 53.8699 66.6191 46.2199 66.6191 44.5499L66.2991 44.29C65.4962 44.2751 64.6944 44.3523 63.9091 44.52L62.6491 44.7399C62.5296 44.787 62.4254 44.8659 62.3478 44.9682C62.2702 45.0705 62.2222 45.1922 62.2091 45.3199L62.0191 47.3199L61.5191 63.4699C61.5191 63.6499 61.0791 63.85 60.8891 63.89H60.5791C59.3191 64.11 56.1091 64.5499 56.1091 64.5499L55.7991 64.2999L55.8091 52.3499ZM63.2891 47.14L63.4191 45.8099L63.9191 45.7199C64.4616 45.6184 65.009 45.545 65.5591 45.5C65.4891 46.44 65.4291 48.7399 65.4291 50.1699C65.4891 52.5799 65.5591 54.9199 65.5591 55.8499V63.2299L66.6291 64.0999L68.9491 63.6899C68.7704 63.8335 68.6411 64.0293 68.5791 64.25V64.87L68.4491 65.02L64.6091 65.6899L64.2991 65.4299V58.5499C64.2991 56.7499 64.1091 49.0999 64.1091 47.4299L63.7891 47.1699C63.6218 47.1846 63.4533 47.1746 63.2891 47.14ZM65.6191 22.2999V22.9799C65.5591 24.0499 65.5591 25.0999 65.5591 25.4699C65.5591 26.3999 65.4891 29.39 65.4291 31.88C65.3691 34.37 65.3691 36.2899 65.3691 37.4699L64.1091 37.6899C64.1691 34.2699 64.2991 29.5399 64.2991 28.1699C64.2991 27.4299 64.4191 24.0599 64.4191 23.3199C64.6091 22.7899 65.1091 22.5699 65.4191 22.2099C65.4291 22.2299 65.4891 22.2299 65.6191 22.2999Z"
              fill="black"/>
        <path d="M76.3108 59.9799C76.3108 60.7299 76.3108 62.1499 78.0708 61.8499C78.5808 61.7599 79.9608 61.5798 81.3408 61.3298L84.6808 60.7499L87.5708 60.3699C88.2008 60.2599 88.8308 60.2099 89.3308 60.1199L89.4008 61.0399C89.4008 61.0399 89.2108 61.3799 89.0808 61.4099C88.9718 61.4279 88.8668 61.4651 88.7708 61.5199L88.2608 61.6099C87.5708 61.7299 82.7908 62.3198 82.1608 62.4298C81.1608 62.6098 76.5608 63.3499 75.5608 63.5199C75.0508 63.6099 75.0508 62.9898 75.0508 62.6798V62.3699C75.1808 54.1099 75.2408 45.8498 75.2408 37.6698C75.2408 36.1198 75.3708 23.1998 75.3108 21.6698V20.5498L75.6208 20.1898L76.5608 20.0199V21.2299C76.5608 23.8999 76.5608 28.2999 76.5008 31.4099V34.9498C76.5008 43.1298 76.4408 51.3899 76.3108 59.6499V59.9799ZM77.5708 59.4498C77.6908 51.1898 77.7608 42.9299 77.7608 34.7499C77.7608 33.1999 77.8808 20.2799 77.8208 18.7499V17.6299L78.1408 17.2699L80.2708 16.8899C83.4808 16.2099 91.1608 15.0498 91.1608 15.0498L91.4708 15.1199C91.5625 15.5385 91.6259 15.9628 91.6608 16.3899V16.6998C91.6608 17.6298 91.6008 19.6998 91.6008 19.6998L91.2808 20.0598L90.6508 20.1698C88.7008 20.5198 86.8808 20.7099 84.9908 21.0999C84.7663 21.1274 84.554 21.2169 84.3774 21.3582C84.2008 21.4994 84.0669 21.687 83.9908 21.8999C83.9308 25.3799 83.6808 29.5799 83.7408 32.8999V34.2599C84.1208 34.6899 84.5608 34.6099 85.0608 34.5199C86.3908 34.2899 87.7708 33.8698 89.0608 33.5698C89.3808 33.5198 89.5608 33.4798 89.6908 33.9598V34.9598C89.6908 35.3298 89.7508 36.2499 89.7508 36.2499L89.5608 38.5199C89.6908 38.0599 88.8108 39.0798 88.4908 39.1998C87.3608 39.3998 86.2308 39.4699 85.1608 39.6599C84.4708 39.7799 84.1608 39.8399 83.8408 40.3899C83.8408 40.6999 83.6508 41.9699 83.7108 42.2699C83.7108 43.3899 83.5308 50.1099 83.5308 51.8499C83.5308 51.8499 83.5908 52.6499 83.5908 52.7699V53.8899C83.6339 53.9878 83.7036 54.0715 83.792 54.1316C83.8804 54.1917 83.984 54.2258 84.0908 54.2299L91.7608 52.7599L91.8908 58.0099C91.8908 58.0099 91.7008 58.3599 91.5808 58.3799C91.4687 58.3981 91.3604 58.4353 91.2608 58.4899L90.7608 58.5798C90.0708 58.6998 85.2908 59.2899 84.6608 59.3999C83.6608 59.5799 79.0608 60.3199 78.0508 60.4999C77.5508 60.5799 77.5508 59.9599 77.5508 59.6499L77.5708 59.4498ZM84.9908 42.4498V42.0099C84.957 41.6954 84.9773 41.3774 85.0508 41.0698H85.1808C85.6808 40.9798 86.1808 40.9599 86.6908 40.8699C86.8349 40.909 86.9867 40.909 87.1308 40.8699C87.0901 41.1211 87.0701 41.3753 87.0708 41.6299C87.1308 42.0499 86.3108 42.1898 86.0008 42.3098L84.9908 42.4498ZM85.2408 23.6199V22.3799C86.2408 22.1399 87.2408 22.0298 88.3208 21.8398L89.0808 21.7098V22.7098L88.7708 23.0698L88.1408 23.1798C87.1308 23.3098 86.1908 23.4798 85.2408 23.5798V23.6199Z"
              fill="black"/>
        <path d="M94.5905 57.9003C95.0805 59.1603 95.5905 58.8203 96.1405 58.9003C96.0805 58.9003 96.2005 58.9003 96.2005 58.9003L98.4905 58.5002V59.6002L98.1205 59.7903L94.0305 60.5002C93.9705 60.5002 93.4105 60.5502 93.3505 60.3202L93.2305 57.9003C93.2305 44.6603 93.3505 31.3403 93.3505 17.9003L93.7205 17.7102L94.5905 17.5602C94.5905 23.4802 94.5905 29.8202 94.5305 35.4402C94.5305 42.0902 94.4705 48.6903 94.4705 55.2803L94.5905 57.9003ZM95.7005 55.0802C95.7005 41.8502 95.8305 28.5202 95.8305 15.0802L96.2005 14.9003L103.44 13.6302C104 13.5302 104.06 14.1302 104.06 14.6302V15.1202C104.06 15.6102 104.99 20.5703 105.73 24.0403C105.86 24.5603 106.471 30.6802 107.531 31.2302C108.391 30.2302 108.701 26.9303 108.701 26.0203C109.071 22.9603 110.13 12.8402 111.05 12.4302C113.709 11.8733 116.397 11.4627 119.1 11.2002L119.411 11.4602C119.661 12.9402 119.6 39.4602 119.6 51.3202L119.411 53.7302L119.29 53.9402L118.79 54.0203C118.85 54.0203 115.571 54.4002 114.021 54.6702C113.411 54.5402 113.341 54.0603 113.341 53.5103C113.341 45.9503 113.651 38.3302 113.651 30.7002C113.651 29.8502 113.651 28.1402 113.341 28.3202C112.851 28.7102 112.85 29.5602 112.73 30.0702C111.92 34.8502 111.24 39.8502 110.43 44.6902C110.43 44.5002 109.071 55.6002 108.641 55.4902L106.161 56.0502C104.861 56.2802 104.86 52.3702 104.68 50.8202C104.06 45.9202 103.38 41.2202 102.57 36.3602C102.464 35.3517 102.301 34.3501 102.081 33.3602C101.951 32.4702 101.891 29.1802 100.971 29.3602L100.781 30.1802C100.781 48.4802 100.971 51.2602 100.971 56.8102L100.591 56.9902L96.5105 57.7102C96.4505 57.7102 95.8905 57.7103 95.8305 57.5203L95.7005 55.0802ZM102.141 53.1603V50.9103C102.081 48.6003 102.021 45.5602 102.021 40.9902C102.511 44.3802 103.02 47.7102 103.44 51.1702C103.514 51.4986 103.554 51.8336 103.56 52.1702C103.69 54.4702 103.941 57.6603 106.161 57.2703L106.54 57.2002C106.35 57.9702 106.231 58.3602 106.161 58.3702C105.861 58.4202 104 58.8702 103.69 58.9202C102.39 59.1502 102.391 55.2402 102.201 53.6902C102.143 53.5198 102.123 53.3392 102.141 53.1603ZM106.88 23.2302C107.38 19.4902 108 15.5302 108.62 15.2302L109.11 15.1503C108.37 18.1503 108.06 22.1502 107.69 24.5502L107.32 26.9302L107.13 27.0203L106.88 23.2302ZM110.971 49.6603L112.271 40.9003V42.3002C112.211 46.0902 112.151 49.8902 112.151 53.6702C112.102 53.9265 112.108 54.1902 112.167 54.4442C112.227 54.6982 112.339 54.937 112.496 55.1451C112.653 55.3533 112.852 55.5262 113.08 55.6528C113.309 55.7794 113.561 55.8569 113.82 55.8802L117.04 55.4402L116.971 56.5403L116.85 56.7502L116.35 56.8402C116.42 56.8402 113.141 57.2202 111.591 57.4902C110.971 57.3502 110.911 56.8702 110.911 56.3202C110.881 54.1402 110.88 51.9402 110.93 49.6702L110.971 49.6603Z"
              fill="black"/>
        <path d="M123.61 53.4297L124.61 54.2398L127.95 53.6498V54.5697L127.58 54.9397L122.58 55.7997L122.27 55.5497L122.09 53.7498L122.15 46.5398L122.27 28.1598V13.4597C122.27 13.2797 122.58 12.7297 122.77 12.6997L123.51 12.5697V25.4998L123.39 43.8898L123.33 51.2197L123.61 53.4297ZM124.61 50.8798L124.67 43.6697L124.79 25.2898V10.5897C124.79 10.3997 125.1 9.85973 125.29 9.82973L130.29 8.65981C130.6 8.59981 130.78 8.8698 130.97 9.1498V11.5897L130.78 13.5897L130.72 30.0797L130.53 36.0198C130.47 37.8098 130.41 39.5797 130.41 41.3497C130.41 44.4697 130.47 51.6498 130.47 51.6498L130.1 52.0198L125.15 52.8898L124.84 52.6398L124.61 50.8798Z"
              fill="black"/>
        <path d="M65.8798 132.3L67.3998 132.031L69.3398 131.69V131.94C69.3398 131.94 68.9198 132.18 68.9198 132.43C68.6598 132.72 68.4098 133.18 67.9898 133.26C66.617 133.711 65.2087 134.046 63.7798 134.26L62.2598 134.531C61.5898 134.151 61.7598 132.87 61.7598 132.21C61.7598 131.71 61.5898 130.21 61.5898 130V99.8705C61.5898 99.2105 61.3398 95.6004 61.3398 94.9404V77.4304C61.5898 77.1304 62.0098 76.1505 62.2598 76.1005L63.2598 75.9204V91.3605C63.2598 92.1105 63.5198 95.7204 63.5198 96.3004V126.42C63.5198 126.84 63.6798 128.3 63.6798 128.63V129.8C63.603 130.268 63.6757 130.748 63.8876 131.172C64.0995 131.595 64.4397 131.941 64.8598 132.161L65.8798 132.3ZM65.3798 128.3C65.3798 127.8 65.2098 126.3 65.2098 126.09V95.9604C65.2098 95.3004 64.9598 91.6905 64.9598 91.0305V72.7705C65.207 72.4959 65.5255 72.2951 65.8798 72.1904L77.6798 70.1305C79.1213 69.8099 80.6177 69.8303 82.0498 70.1904C82.6571 70.3874 83.2067 70.7308 83.6498 71.1904C86.0998 73.4204 86.8498 76.7705 86.8498 80.2605C86.9479 82.5602 86.9212 84.8637 86.7698 87.1605C86.7698 87.3305 86.5998 89.7605 86.5998 90.0105C86.5998 90.2605 86.3498 91.8005 86.3498 92.0105C85.984 93.6988 85.5335 95.3675 84.9998 97.0105C84.8041 97.384 84.637 97.7717 84.4998 98.1704C84.492 98.3346 84.4325 98.4921 84.3298 98.6205C83.4543 99.836 82.4028 100.914 81.2098 101.82C80.114 102.444 78.9204 102.876 77.6798 103.1C76.9998 103.22 73.7998 104.03 73.2098 104.1L72.9598 104.31V127.88C72.9598 127.88 72.5398 128.12 72.5398 128.37C72.2898 128.66 72.0298 129.12 71.6098 129.2C70.2373 129.652 68.8289 129.987 67.3998 130.2L65.8798 130.47C65.2198 130.23 65.3898 128.98 65.3898 128.32L65.3798 128.3ZM72.7098 96.7305C72.7098 97.5605 73.6298 97.6405 74.3098 97.5205C76.8298 97.0805 78.5198 95.8805 79.0198 93.3805C79.1898 91.5205 79.1898 88.9504 79.1898 87.2104C79.1898 84.5504 79.1898 82.8104 79.0198 79.9304C78.7698 77.8204 76.5798 77.3805 74.5598 77.7305C74.0498 77.8205 73.2098 77.7304 72.9598 78.6704C72.9598 81.2504 72.7098 93.8205 72.7098 96.4805V96.7305ZM74.6398 82.2805V79.3705C75.9898 79.2205 77.1698 79.4304 77.3398 80.3104C77.5098 83.1904 77.5098 84.8505 77.5098 87.5005C77.5098 89.1605 77.5098 91.6505 77.3398 93.5005V93.3304C77.2379 93.8265 77.016 94.29 76.6935 94.6805C76.371 95.071 75.9577 95.3766 75.4898 95.5704C75.5698 93.9704 75.5698 92.3104 75.5698 91.0704C75.5698 88.4104 75.5698 86.6705 75.3998 83.7905C75.348 83.2167 75.0799 82.6839 74.6498 82.3004L74.6398 82.2805ZM74.6398 107.01V105.68C76.1582 105.49 77.655 105.155 79.1098 104.68C78.6699 105.153 78.1567 105.551 77.5898 105.86C76.6652 106.377 75.6768 106.771 74.6498 107.031L74.6398 107.01Z"
              fill="black"/>
        <path d="M90.6989 114.6C92.1789 114.4 94.8289 114 96.3189 113.74C98.9689 113.28 101.739 112.66 103.999 112.14C103.999 112.91 103.619 113.29 102.779 113.5C98.3415 114.684 93.8321 115.579 89.2789 116.18L89.0789 114.63C89.0789 114.31 88.7589 105.45 88.6289 102.03C88.6289 101.4 88.9489 90.52 88.8889 86.58C88.8889 84.16 88.6289 74.02 88.6289 71.79C88.6506 71.6272 88.7265 71.4764 88.8445 71.3621C88.9624 71.2477 89.1155 71.1766 89.2789 71.16H89.9189C89.9189 72.62 89.9889 74.52 90.0489 76.16C90.1189 79.34 90.1789 82.64 90.1789 83.85C90.2389 86.85 90.0489 93.8499 89.9889 97.3099C89.9889 98.3999 89.9189 99.2399 89.9189 99.3099C90.0489 102.73 90.3689 111.65 90.3689 111.97L90.6989 114.6ZM91.6989 111.6C91.6989 111.28 91.3689 102.42 91.2389 99C91.2389 98.37 91.5689 87.4899 91.4989 83.5499C91.4989 81.1299 91.2389 70.99 91.2389 68.76C91.2609 68.5983 91.3373 68.4488 91.4554 68.3362C91.5735 68.2235 91.7263 68.1544 91.8889 68.14L96.7389 67.4199L97.2489 67.83V69.36C97.3189 70.05 97.1189 73.52 97.1189 74.16L97.6989 105.64C97.7303 105.756 97.7975 105.859 97.8909 105.934C97.9842 106.01 98.0991 106.054 98.2189 106.06L105.649 104.51C105.839 104.51 106.229 104.91 106.229 105.1L106.619 108.79C106.749 109.79 106.359 110.24 105.389 110.47C100.95 111.682 96.4374 112.604 91.8789 113.23L91.6989 111.6Z"
              fill="black"/>
        <path d="M111.24 111.23C110.72 111.32 107.75 111.65 107.24 111.74C106.92 111.8 107.05 111.14 107.05 110.95C107.05 110.76 107.44 109.16 107.44 108.95C108.34 102.04 108.92 95.06 110.02 88.12C110.35 84.82 111.02 81.57 111.38 78.21C111.51 76.85 112.09 75.34 112.28 73.97C112.505 71.332 112.96 68.7188 113.64 66.16L114.41 66.02C114.03 68.02 113.64 70.23 113.57 71.2L113.19 72.7999C112.965 73.6252 112.792 74.4635 112.67 75.3099C112.48 76.9899 112.22 78.6299 111.96 80.3099C111.7 81.9899 111.44 83.65 111.32 85.2C110.67 89.32 110.15 93.93 109.7 98.02L108.7 106.09C108.595 106.387 108.531 106.696 108.51 107.01L108.57 106.88C108.445 107.308 108.358 107.747 108.31 108.19C108.31 109.19 107.8 110.39 109.8 110.04C110.06 110.04 110.8 109.92 111.67 109.84C111.93 109.84 112.32 109.84 112.67 109.73C112.48 110.53 112.22 111.08 111.77 111.16L111.24 111.23ZM113.82 108.23C113.31 108.32 110.34 108.65 109.82 108.74C109.5 108.8 109.63 108.14 109.63 107.95C109.63 107.76 109.95 106.17 110.01 105.95L112.6 85.12C112.92 81.82 113.6 78.57 113.95 75.21C114.08 73.85 114.66 72.34 114.86 70.97C115.088 68.3331 115.539 65.7204 116.21 63.16C118.35 62.79 120.67 62.25 123 62.04C124 65.04 124.1 68.2099 124.61 71.2999C124.74 72.9999 125.19 74.83 125.45 76.51L126.45 84.73C126.45 84.92 126.64 85.59 126.64 85.73C127.16 91.36 128.64 100.27 128.77 101.14C128.9 102.65 129.29 103.98 129.29 105.51L129.09 105.74L123.47 106.74C122.83 106.85 122.83 105.74 122.83 105.13C122.83 103.8 122.25 99.4999 121.92 99.2999L116.37 100.3C115.08 100.52 116.04 107.87 114.3 108.17L113.82 108.23ZM116.41 102.81L116.54 101.52L121.25 100.69C121.38 101.5 121.58 104.33 121.58 105.35C121.58 106.37 121.58 108.35 123.51 108L126.68 107.45C126.68 107.77 126.74 108.14 126.74 108.52L126.55 108.74L120.93 109.74C120.28 109.85 120.28 108.74 120.28 108.13C120.28 106.79 119.7 102.5 119.38 102.3L116.41 102.81ZM121.12 94.09L121.25 93.88C121.58 93 120.74 93.5899 120.74 88.0499C120.67 88.1199 119.74 77.65 119.19 77.75C119.055 77.7913 118.936 77.8695 118.844 77.9756C118.752 78.0817 118.691 78.2113 118.67 78.35C118.61 82.69 117.67 86.49 117.12 90.53C116.86 91.7329 116.686 92.9525 116.6 94.1799C116.569 94.2435 116.554 94.3132 116.555 94.3837C116.556 94.4541 116.573 94.5234 116.605 94.5862C116.636 94.649 116.682 94.7036 116.739 94.7458C116.795 94.7881 116.86 94.8169 116.93 94.83L121.12 94.09ZM118.41 90.5599L118.99 86.5599L119.12 85.71C119.129 86.0468 119.173 86.3819 119.25 86.71C119.271 87.2309 119.335 87.7493 119.44 88.26C119.366 89.864 119.477 91.4711 119.77 93.0499L118.22 93.3199C118.157 92.7723 118.133 92.2209 118.15 91.6699L118.41 90.5599Z"
              fill="black"/>
        <path d="M134.881 105.16L135.591 105.61L139.271 104.9V105.9L138.951 106.27L133.521 107.27L133.201 107.13C132.871 106.94 133.201 103.38 133.071 103.13C133.071 102.13 133.131 98.2804 133.131 97.4604V95.0405C132.898 93.464 132.564 91.9041 132.131 90.3705L128.901 75.3705C128.391 72.8505 127.741 70.2204 127.221 67.7004C126.956 66.6239 126.786 65.5264 126.711 64.4204V63.9105L127.031 63.7204L128.131 63.5305C128.184 63.8425 128.271 64.1476 128.391 64.4404L128.581 65.2304H128.521C128.771 66.5204 129.101 67.8705 129.421 69.1505L129.361 69.1004L130.191 72.9005L133.431 87.9005L133.881 89.4204C134.071 90.3404 134.271 91.2604 134.391 92.3204V97.3204C134.391 98.5304 134.331 100.13 134.331 100.64V101.64C134.271 103.05 134.391 105 135.041 105.27L134.881 105.16ZM135.651 100.16C135.651 99.1605 135.721 95.3004 135.721 94.4804V92.0604C135.483 90.4848 135.149 88.9253 134.721 87.3905L131.491 72.3905C130.971 69.8705 130.321 67.2404 129.811 64.7204C129.538 63.6452 129.364 62.5473 129.291 61.4404V60.9304L129.611 60.7405L134.721 59.8504C134.875 59.81 135.037 59.817 135.187 59.8706C135.337 59.9241 135.467 60.0217 135.561 60.1505C135.617 60.351 135.66 60.5547 135.691 60.7605C136.691 65.1705 137.111 72.7605 138.141 77.1405C138.141 77.3305 138.271 77.9504 138.271 78.0804C138.271 78.2104 138.271 78.9004 138.721 78.8304C138.921 78.8304 139.041 78.2605 139.041 78.1305C139.371 76.9305 139.371 75.4604 139.561 74.3504L141.501 61.0804C141.501 60.8904 141.631 59.4005 141.631 59.2805L141.821 58.7304L142.021 58.5704L147.021 57.6904C147.079 57.6738 147.139 57.6704 147.198 57.6804C147.257 57.6904 147.313 57.7135 147.362 57.748C147.411 57.7826 147.452 57.8278 147.481 57.8801C147.51 57.9324 147.527 57.9906 147.531 58.0504V58.2405C146.531 62.9405 145.721 67.7204 144.881 72.4604C144.241 76.1304 143.721 79.7904 143.071 83.4604C143.071 83.5904 142.751 84.9204 142.751 85.1104C142.621 86.2804 142.301 87.4805 142.111 88.6605C141.981 89.3205 141.781 91.1405 141.781 91.1405V102.85L141.461 103.23L136.031 104.23L135.711 104.09C135.471 103.92 135.791 100.36 135.661 100.13L135.651 100.16ZM139.461 61.6004L140.171 61.4804L138.621 71.9404L138.241 68.8204L138.951 64.1104C138.951 63.9204 139.071 62.4304 139.071 62.3104L139.271 61.7605L139.461 61.6004Z"
              fill="black"/>
    </g>
    <defs>
        <clipPath id="clip0_1106_12653">
            <rect width="159.74" height="158.32" fill="white"/>
        </clipPath>
    </defs>
</svg>
