<svg width="30" height="30" viewBox="0 0 30 30" fill="none" xmlns="http://www.w3.org/2000/svg">
<g clip-path="url(#clip0_1845_23094)">
<path d="M1.66797 25.0007C1.66797 23.2325 2.37035 21.5368 3.62059 20.2866C4.87083 19.0364 6.56653 18.334 8.33464 18.334H21.668C23.4361 18.334 25.1318 19.0364 26.382 20.2866C27.6323 21.5368 28.3346 23.2325 28.3346 25.0007C28.3346 25.8847 27.9834 26.7326 27.3583 27.3577C26.7332 27.9828 25.8854 28.334 25.0013 28.334H5.0013C4.11725 28.334 3.2694 27.9828 2.64428 27.3577C2.01916 26.7326 1.66797 25.8847 1.66797 25.0007Z" stroke="#2B2B2B" stroke-width="1.5" stroke-linejoin="round"/>
<path d="M14.998 11.667C17.7595 11.667 19.998 9.42842 19.998 6.66699C19.998 3.90557 17.7595 1.66699 14.998 1.66699C12.2366 1.66699 9.99805 3.90557 9.99805 6.66699C9.99805 9.42842 12.2366 11.667 14.998 11.667Z" stroke="#2B2B2B" stroke-width="1.5"/>
</g>
<defs>
<clipPath id="clip0_1845_23094">
<rect width="30" height="30" fill="white"/>
</clipPath>
</defs>
</svg>
