<svg width="24" height="36" viewBox="0 0 24 36" fill="none" xmlns="http://www.w3.org/2000/svg">
<g clip-path="url(#clip0_1845_23092)">
<path d="M2.11666 1.86666C2.83164 1.15167 3.80136 0.75 4.8125 0.75H19.1875C20.1986 0.75 21.1684 1.15167 21.8833 1.86666C22.5983 2.58164 23 3.55136 23 4.5625V31.4375C23 32.4486 22.5983 33.4184 21.8833 34.1333C21.1684 34.8483 20.1986 35.25 19.1875 35.25H4.8125C3.80136 35.25 2.83164 34.8483 2.11666 34.1333C1.40167 33.4184 1 32.4486 1 31.4375V4.5625C1 3.55136 1.40167 2.58164 2.11666 1.86666ZM4.8125 2.75C3.81193 2.75 3 3.56193 3 4.5625V31.4375C3 32.4381 3.81193 33.25 4.8125 33.25H19.1875C20.1881 33.25 21 32.4381 21 31.4375V4.5625C21 3.56193 20.1881 2.75 19.1875 2.75H4.8125ZM8.79289 28.5429C8.98043 28.3554 9.23478 28.25 9.5 28.25H14.5C14.7652 28.25 15.0196 28.3554 15.2071 28.5429C15.3946 28.7304 15.5 28.9848 15.5 29.25C15.5 29.5152 15.3946 29.7696 15.2071 29.9571C15.0196 30.1446 14.7652 30.25 14.5 30.25H9.5C9.23478 30.25 8.98043 30.1446 8.79289 29.9571C8.60536 29.7696 8.5 29.5152 8.5 29.25C8.5 28.9848 8.60536 28.7304 8.79289 28.5429Z" fill="#2B2B2B" stroke="white" stroke-width="0.5"/>
</g>
<defs>
<clipPath id="clip0_1845_23092">
<rect width="24" height="36" fill="white"/>
</clipPath>
</defs>
</svg>
