<svg width="20" height="20" viewBox="0 0 20 20" fill="none" xmlns="http://www.w3.org/2000/svg">
    <path d="M11.979 0C12.1302 4.76545e-06 12.2775 0.0480055 12.3997 0.137089C12.5219 0.226173 12.6127 0.351743 12.659 0.495714L13.4446 2.93714C13.7746 3.09857 14.0903 3.28 14.3918 3.48429L16.9002 2.94429C17.0481 2.91271 17.2022 2.92889 17.3403 2.99051C17.4785 3.05212 17.5935 3.15599 17.6688 3.28714L19.6487 6.71429C19.7243 6.84537 19.7563 6.99707 19.7401 7.14753C19.724 7.29798 19.6604 7.43941 19.5587 7.55143L17.8373 9.45143C17.8624 9.81576 17.8624 10.1814 17.8373 10.5457L19.5587 12.4486C19.6604 12.5606 19.724 12.702 19.7401 12.8525C19.7563 13.0029 19.7243 13.1546 19.6487 13.2857L17.6688 16.7143C17.5933 16.8452 17.4782 16.9488 17.3401 17.0101C17.202 17.0715 17.048 17.0874 16.9002 17.0557L14.3918 16.5157C14.0918 16.7186 13.7746 16.9014 13.4461 17.0629L12.659 19.5043C12.6127 19.6483 12.5219 19.7738 12.3997 19.8629C12.2775 19.952 12.1302 20 11.979 20H8.01915C7.86793 20 7.72061 19.952 7.59842 19.8629C7.47622 19.7738 7.38545 19.6483 7.33918 19.5043L6.55492 17.0643C6.22582 16.9033 5.90839 16.7196 5.60496 16.5143L3.09792 17.0557C2.95001 17.0873 2.79591 17.0711 2.65779 17.0095C2.51968 16.9479 2.40468 16.844 2.32937 16.7129L0.349453 13.2857C0.273849 13.1546 0.241825 13.0029 0.257999 12.8525C0.274174 12.702 0.337711 12.5606 0.43945 12.4486L2.16081 10.5457C2.13588 10.1823 2.13588 9.81767 2.16081 9.45429L0.43945 7.55143C0.337711 7.43941 0.274174 7.29798 0.257999 7.14753C0.241825 6.99707 0.273849 6.84537 0.349453 6.71429L2.32937 3.28571C2.40489 3.15482 2.51997 3.05125 2.65807 2.9899C2.79617 2.92855 2.95017 2.91258 3.09792 2.94429L5.60496 3.48571C5.9078 3.28143 6.22493 3.09714 6.55492 2.93571L7.3406 0.495714C7.38673 0.352207 7.47707 0.226969 7.59869 0.137929C7.72031 0.0488877 7.86699 0.000608096 8.01772 0H11.9776H11.979ZM11.4562 1.42857H8.54199L7.73059 3.95286L7.18347 4.22C6.9145 4.35162 6.65486 4.5015 6.40636 4.66857L5.90066 5.01143L3.30648 4.45143L1.84939 6.97714L3.62789 8.94571L3.58504 9.55143C3.56451 9.85012 3.56451 10.1499 3.58504 10.4486L3.62789 11.0543L1.84654 13.0229L3.30505 15.5486L5.89923 14.99L6.40493 15.3314C6.65343 15.4985 6.91307 15.6484 7.18204 15.78L7.72916 16.0471L8.54199 18.5714H11.459L12.2733 16.0457L12.819 15.78C13.0876 15.6487 13.3468 15.4988 13.5946 15.3314L14.0989 14.99L16.6945 15.5486L18.1516 13.0229L16.3717 11.0543L16.4145 10.4486C16.4351 10.1494 16.4351 9.84917 16.4145 9.55L16.3717 8.94429L18.153 6.97714L16.6945 4.45143L14.0989 5.00857L13.5946 4.66857C13.3468 4.50116 13.0877 4.35127 12.819 4.22L12.2733 3.95429L11.4576 1.42857H11.4562ZM9.99907 5.71429C11.1357 5.71429 12.2257 6.16582 13.0294 6.96954C13.8331 7.77327 14.2846 8.86336 14.2846 10C14.2846 11.1366 13.8331 12.2267 13.0294 13.0305C12.2257 13.8342 11.1357 14.2857 9.99907 14.2857C8.86247 14.2857 7.77243 13.8342 6.96873 13.0305C6.16504 12.2267 5.71353 11.1366 5.71353 10C5.71353 8.86336 6.16504 7.77327 6.96873 6.96954C7.77243 6.16582 8.86247 5.71429 9.99907 5.71429ZM9.99907 7.14286C9.24134 7.14286 8.51464 7.44388 7.97885 7.97969C7.44305 8.51551 7.14204 9.24224 7.14204 10C7.14204 10.7578 7.44305 11.4845 7.97885 12.0203C8.51464 12.5561 9.24134 12.8571 9.99907 12.8571C10.7568 12.8571 11.4835 12.5561 12.0193 12.0203C12.5551 11.4845 12.8561 10.7578 12.8561 10C12.8561 9.24224 12.5551 8.51551 12.0193 7.97969C11.4835 7.44388 10.7568 7.14286 9.99907 7.14286Z"
          fill="#2B2B2B"/>
</svg>
