<svg width="24" height="24" viewBox="0 0 24 24" fill="none" xmlns="http://www.w3.org/2000/svg">
    <g clip-path="url(#clip0_1646_2863)">
        <path d="M20.0048 8.91645C20.731 9.33464 21.3198 9.95512 21.6994 10.7022C22.079 11.4493 22.233 12.2908 22.1427 13.1239C22.0524 13.9571 21.7216 14.7459 21.1907 15.3943C20.6598 16.0427 19.9517 16.5225 19.1528 16.7753C18.8704 18.0568 18.1589 19.2034 17.1361 20.0253C16.1132 20.8472 14.8404 21.2951 13.5283 21.2949H11.3695C11.1786 21.2949 10.9956 21.2191 10.8606 21.0841C10.7257 20.9491 10.6499 20.7661 10.6499 20.5752C10.6499 20.3843 10.7257 20.2013 10.8606 20.0663C10.9956 19.9314 11.1786 19.8555 11.3695 19.8555H13.5283C14.4215 19.8558 15.2928 19.5791 16.0223 19.0636C16.7517 18.548 17.3034 17.819 17.6013 16.9768H17.1264C16.9355 16.9768 16.7525 16.901 16.6175 16.766C16.4826 16.6311 16.4068 16.448 16.4068 16.2572V9.06038C16.4068 8.86951 16.4826 8.68646 16.6175 8.5515C16.7525 8.41653 16.9355 8.34071 17.1264 8.34071H17.846C18.0791 8.34071 18.308 8.35942 18.5325 8.3954C18.3705 6.799 17.6217 5.31957 16.4313 4.24376C15.2409 3.16795 13.6935 2.57234 12.0891 2.57234C10.4846 2.57234 8.93732 3.16795 7.7469 4.24376C6.55648 5.31957 5.80773 6.799 5.64572 8.3954C5.87275 8.35904 6.10231 8.34075 6.33223 8.34071H7.05184C7.24269 8.34071 7.42572 8.41653 7.56068 8.5515C7.69563 8.68646 7.77144 8.86951 7.77144 9.06038V16.2572C7.77144 16.448 7.69563 16.6311 7.56068 16.766C7.42572 16.901 7.24269 16.9768 7.05184 16.9768H6.33223C5.38088 16.9779 4.45581 16.6647 3.70076 16.0859C2.94571 15.5071 2.40294 14.6951 2.15679 13.776C1.91064 12.857 1.97489 11.8824 2.33956 11.0036C2.70423 10.1248 3.3489 9.39111 4.1734 8.91645C4.1734 6.81688 5.00737 4.8033 6.49186 3.31867C7.97634 1.83405 9.98972 1 12.0891 1C14.1885 1 16.2019 1.83405 17.6863 3.31867C19.1708 4.8033 20.0048 6.81688 20.0048 8.91645ZM6.33223 9.78006C5.56882 9.78006 4.83668 10.0834 4.29687 10.6232C3.75705 11.1631 3.45379 11.8953 3.45379 12.6588C3.45379 13.4223 3.75705 14.1545 4.29687 14.6943C4.83668 15.2342 5.56882 15.5375 6.33223 15.5375V9.78006ZM20.7244 12.6588C20.7244 11.8953 20.4211 11.1631 19.8813 10.6232C19.3415 10.0834 18.6094 9.78006 17.846 9.78006V15.5375C18.6094 15.5375 19.3415 15.2342 19.8813 14.6943C20.4211 14.1545 20.7244 13.4223 20.7244 12.6588Z"
              fill="#2B2B2B"/>
    </g>
    <defs>
        <clipPath id="clip0_1646_2863">
            <rect width="20.1581" height="21" fill="white" transform="translate(2.00195 1)"/>
        </clipPath>
    </defs>
</svg>
