<svg width="22" height="16" viewBox="0 0 22 16" fill="none" xmlns="http://www.w3.org/2000/svg">
<g clip-path="url(#clip0_2031_25625)">
<path d="M7.33273 5.33336C7.33273 4.59697 6.73576 4 5.99937 4C5.26298 4 4.66602 4.59697 4.66602 5.33336V10.6666C4.66602 11.403 5.26298 12 5.99937 12C6.73576 12 7.33273 11.403 7.33273 10.6666V5.33336Z" fill="#FF8066"/>
<path d="M21.3308 5.33336C21.3308 4.59697 20.7338 4 19.9974 4C19.261 4 18.6641 4.59697 18.6641 5.33336V10.6666C18.6641 11.403 19.261 12 19.9974 12C20.7338 12 21.3308 11.403 21.3308 10.6666V5.33336Z" fill="#FF8066"/>
<path d="M11.9987 1.33336C11.9987 0.596966 11.4018 0 10.6654 0C9.92899 0 9.33203 0.596966 9.33203 1.33336V14.6666C9.33203 15.403 9.92899 16 10.6654 16C11.4018 16 11.9987 15.403 11.9987 14.6666V1.33336Z" fill="#FF8066"/>
<path d="M16.6648 3.73277C16.6648 2.99638 16.0678 2.39941 15.3314 2.39941C14.595 2.39941 13.998 2.99638 13.998 3.73277V12.2661C13.998 13.0024 14.595 13.5994 15.3314 13.5994C16.0678 13.5994 16.6648 13.0024 16.6648 12.2661V3.73277Z" fill="#FF8066"/>
<path d="M2.66671 6.93297C2.66671 6.19658 2.06975 5.59961 1.33335 5.59961C0.596963 5.59961 0 6.19658 0 6.93297V9.06625C0 9.80264 0.596963 10.3996 1.33335 10.3996C2.06975 10.3996 2.66671 9.80264 2.66671 9.06625V6.93297Z" fill="#FF8066"/>
</g>
<defs>
<clipPath id="clip0_2031_25625">
<rect width="22" height="16" fill="white"/>
</clipPath>
</defs>
</svg>
