<svg width="33" height="33" viewBox="0 0 33 33" fill="none" xmlns="http://www.w3.org/2000/svg">
    <g clip-path="url(#clip0_1294_15830)" filter="url(#filter0_d_1294_15830)">
        <g filter="url(#filter1_d_1294_15830)">
            <path d="M14.0246 20.7619C14.3752 20.7619 14.6693 20.6431 14.9069 20.4055C15.1445 20.1679 15.2629 19.8742 15.2621 19.5244V12.0997C15.2621 11.7491 15.1433 11.455 14.9057 11.2174C14.6681 10.9798 14.3744 10.8614 14.0246 10.8622C13.674 10.8622 13.3799 10.981 13.1423 11.2186C12.9047 11.4562 12.7864 11.7499 12.7872 12.0997V19.5244C12.7872 19.875 12.906 20.1691 13.1436 20.4067C13.3812 20.6443 13.6748 20.7627 14.0246 20.7619ZM18.9745 20.7619C19.3251 20.7619 19.6192 20.6431 19.8568 20.4055C20.0943 20.1679 20.2127 19.8742 20.2119 19.5244V12.0997C20.2119 11.7491 20.0931 11.455 19.8555 11.2174C19.6179 10.9798 19.3242 10.8614 18.9745 10.8622C18.6238 10.8622 18.3297 10.981 18.0921 11.2186C17.8546 11.4562 17.7362 11.7499 17.737 12.0997V19.5244C17.737 19.875 17.8558 20.1691 18.0934 20.4067C18.331 20.6443 18.6247 20.7627 18.9745 20.7619ZM16.4995 28.1866C14.7877 28.1866 13.179 27.8615 11.6735 27.2115C10.1679 26.5614 8.85826 25.6799 7.74455 24.567C6.63085 23.4533 5.74937 22.1437 5.10011 20.6381C4.45086 19.1325 4.12582 17.5239 4.125 15.812C4.125 14.1002 4.45004 12.4915 5.10011 10.986C5.75019 9.4804 6.63167 8.17076 7.74455 7.05705C8.85826 5.94335 10.1679 5.06187 11.6735 4.41261C13.179 3.76336 14.7877 3.43832 16.4995 3.4375C18.2114 3.4375 19.82 3.76254 21.3256 4.41261C22.8312 5.06269 24.1408 5.94417 25.2545 7.05705C26.3682 8.17076 27.2501 9.4804 27.9002 10.986C28.5503 12.4915 28.8749 14.1002 28.8741 15.812C28.8741 17.5239 28.549 19.1325 27.899 20.6381C27.2489 22.1437 26.3674 23.4533 25.2545 24.567C24.1408 25.6807 22.8312 26.5626 21.3256 27.2127C19.82 27.8628 18.2114 28.1874 16.4995 28.1866Z"
                  fill="#FF8066"/>
            <path d="M7.16144 25.1506L7.16122 25.1504C5.97073 23.9599 5.03144 22.5622 4.3426 20.9648C3.64696 19.3516 3.30092 17.6314 3.30005 15.8124L3.30005 15.812C3.30005 13.9928 3.64613 12.2723 4.34275 10.659C5.03234 9.06186 5.9715 7.66433 7.16101 6.47394L7.16122 6.47372C8.35172 5.28323 9.74943 4.34394 11.3468 3.6551C12.9599 2.95946 14.6802 2.61342 16.4991 2.61255L16.4995 2.61255C18.3188 2.61255 20.0393 2.95863 21.6526 3.65525C23.2497 4.34484 24.6473 5.284 25.8376 6.47351L25.8379 6.47372C27.0283 7.66414 27.9679 9.06173 28.6576 10.659C29.3542 12.2723 29.6999 13.9928 29.699 15.812L7.16144 25.1506ZM7.16144 25.1506C8.35183 26.3401 9.74936 27.2792 11.3465 27.9688C12.9597 28.6654 14.68 29.0115 16.4991 29.0115L7.16144 25.1506ZM25.8381 25.1501L25.8379 25.1504C24.6474 26.3408 23.2499 27.2804 21.6526 27.9701C20.0393 28.6667 18.3188 29.0124 16.4995 29.0115L25.8381 25.1501ZM25.8381 25.1501C27.0276 23.9598 27.9667 22.5622 28.6563 20.9651C29.3529 19.3519 29.699 17.6315 29.699 15.8124L25.8381 25.1501ZM14.4371 19.5244L14.4371 19.5264C14.4375 19.6667 14.3991 19.7467 14.3236 19.8221C14.2481 19.8977 14.1671 19.9369 14.0246 19.9369L14.0227 19.9369C13.8823 19.9372 13.8023 19.8988 13.7269 19.8234C13.6514 19.7478 13.6121 19.6668 13.6121 19.5244L13.6121 12.0997L13.6121 12.0977C13.6118 11.9574 13.6502 11.8774 13.7257 11.8019C13.8012 11.7264 13.8822 11.6872 14.0246 11.6872L14.0266 11.6872C14.167 11.6868 14.2469 11.7253 14.3224 11.8007C14.3979 11.8762 14.4371 11.9573 14.4371 12.0997L14.4371 19.5244ZM19.387 19.5244L19.387 19.5264C19.3873 19.6667 19.3489 19.7467 19.2734 19.8221C19.1979 19.8977 19.1169 19.9369 18.9745 19.9369L18.9725 19.9369C18.8321 19.9372 18.7522 19.8988 18.6767 19.8234C18.6012 19.7478 18.5619 19.6668 18.5619 19.5244L18.562 12.0997L18.5619 12.0977C18.5616 11.9574 18.6 11.8774 18.6755 11.8019C18.751 11.7264 18.832 11.6872 18.9745 11.6872L18.9764 11.6872C19.1168 11.6868 19.1967 11.7253 19.2722 11.8007C19.3477 11.8762 19.387 11.9573 19.387 12.0997L19.387 19.5244Z"
                  stroke="#4D4D4D" stroke-width="1.6499"/>
        </g>
    </g>
    <defs>
        <filter id="filter0_d_1294_15830" x="0" y="0" width="35.0605" height="35.0614" filterUnits="userSpaceOnUse"
                color-interpolation-filters="sRGB">
            <feFlood flood-opacity="0" result="BackgroundImageFix"/>
            <feColorMatrix in="SourceAlpha" type="matrix" values="0 0 0 0 0 0 0 0 0 0 0 0 0 0 0 0 0 0 127 0"
                           result="hardAlpha"/>
            <feOffset dx="2.06242" dy="2.06242"/>
            <feComposite in2="hardAlpha" operator="out"/>
            <feColorMatrix type="matrix" values="0 0 0 0 0.301961 0 0 0 0 0.301961 0 0 0 0 0.301961 0 0 0 1 0"/>
            <feBlend mode="normal" in2="BackgroundImageFix" result="effect1_dropShadow_1294_15830"/>
            <feBlend mode="normal" in="SourceGraphic" in2="effect1_dropShadow_1294_15830" result="shape"/>
        </filter>
        <filter id="filter1_d_1294_15830" x="2.47461" y="1.78711" width="29.6988" height="29.6997"
                filterUnits="userSpaceOnUse" color-interpolation-filters="sRGB">
            <feFlood flood-opacity="0" result="BackgroundImageFix"/>
            <feColorMatrix in="SourceAlpha" type="matrix" values="0 0 0 0 0 0 0 0 0 0 0 0 0 0 0 0 0 0 127 0"
                           result="hardAlpha"/>
            <feOffset dx="1.64994" dy="1.64994"/>
            <feComposite in2="hardAlpha" operator="out"/>
            <feColorMatrix type="matrix" values="0 0 0 0 0.301961 0 0 0 0 0.301961 0 0 0 0 0.301961 0 0 0 1 0"/>
            <feBlend mode="normal" in2="BackgroundImageFix" result="effect1_dropShadow_1294_15830"/>
            <feBlend mode="normal" in="SourceGraphic" in2="effect1_dropShadow_1294_15830" result="shape"/>
        </filter>
        <clipPath id="clip0_1294_15830">
            <rect width="32.9988" height="32.9988" fill="white"/>
        </clipPath>
    </defs>
</svg>
