<svg width="33" height="33" viewBox="0 0 33 33" fill="none" xmlns="http://www.w3.org/2000/svg">
    <g filter="url(#filter0_d_1294_15900)">
        <path d="M16.4995 3.4375C14.0521 3.4375 11.6596 4.16325 9.62462 5.52299C7.58964 6.88272 6.00356 8.81536 5.06696 11.0765C4.13036 13.3377 3.8853 15.8258 4.36278 18.2262C4.84025 20.6266 6.01881 22.8316 7.74942 24.5622C9.48004 26.2928 11.685 27.4713 14.0854 27.9488C16.4858 28.4263 18.9739 28.1812 21.2351 27.2446C23.4962 26.308 25.4289 24.7219 26.7886 22.687C28.1483 20.652 28.8741 18.2595 28.8741 15.812C28.87 12.5314 27.5649 9.38623 25.2451 7.06644C22.9254 4.74665 19.7802 3.44159 16.4995 3.4375ZM20.8354 16.6045L15.1241 20.412C14.9674 20.5159 14.7837 20.5713 14.5958 20.5715C14.3433 20.5715 14.1012 20.4712 13.9227 20.2927C13.7442 20.1142 13.6439 19.872 13.6439 19.6196V12.0045C13.6438 11.8321 13.6905 11.6629 13.779 11.515C13.8675 11.3671 13.9945 11.246 14.1465 11.1647C14.2985 11.0833 14.4697 11.0448 14.6418 11.0531C14.814 11.0614 14.9807 11.1164 15.1241 11.212L20.8354 15.0196C20.966 15.1065 21.073 15.2243 21.1471 15.3625C21.2212 15.5008 21.2599 15.6552 21.2599 15.812C21.2599 15.9689 21.2212 16.1233 21.1471 16.2615C21.073 16.3998 20.966 16.5176 20.8354 16.6045Z"
              fill="#FF8066"/>
        <path d="M16.5006 2.61255H16.4995C13.8889 2.61255 11.3369 3.38668 9.1663 4.83706C6.99566 6.28744 5.30384 8.34892 4.3048 10.7608C3.30577 13.1727 3.04437 15.8267 3.55368 18.3871C4.06298 20.9476 5.32011 23.2995 7.1661 25.1455C9.01208 26.9915 11.364 28.2486 13.9245 28.7579C16.4849 29.2672 19.1389 29.0058 21.5508 28.0068C23.9627 27.0077 26.0241 25.3159 27.4745 23.1453C28.9249 20.9746 29.699 18.4227 29.699 15.812L29.699 15.811C29.6947 12.3119 28.3027 8.95736 25.8285 6.48311C23.3542 4.00886 19.9997 2.61691 16.5006 2.61255ZM20.3784 15.9177L20.3778 15.9181L14.6683 19.7244C14.6681 19.7245 14.668 19.7246 14.6678 19.7248C14.6464 19.7388 14.6214 19.7464 14.5958 19.7465C14.5621 19.7465 14.5298 19.7332 14.506 19.7094C14.4822 19.6855 14.4688 19.6533 14.4688 19.6196V12.0045V12.004C14.4688 11.981 14.475 11.9584 14.4869 11.9387C14.4987 11.919 14.5156 11.9028 14.5359 11.892C14.5561 11.8811 14.579 11.876 14.6019 11.8771C14.6249 11.8782 14.6471 11.8855 14.6662 11.8983L14.6665 11.8984L20.3778 15.706L20.3784 15.7064C20.3958 15.718 20.41 15.7337 20.4199 15.7521C20.4298 15.7705 20.435 15.7911 20.435 15.812C20.435 15.833 20.4298 15.8535 20.4199 15.872C20.41 15.8904 20.3958 15.9061 20.3784 15.9177Z"
              stroke="#4D4D4D" stroke-width="1.6499"/>
    </g>
    <defs>
        <filter id="filter0_d_1294_15900" x="2.47461" y="1.78711" width="29.6988" height="29.6997"
                filterUnits="userSpaceOnUse" color-interpolation-filters="sRGB">
            <feFlood flood-opacity="0" result="BackgroundImageFix"/>
            <feColorMatrix in="SourceAlpha" type="matrix" values="0 0 0 0 0 0 0 0 0 0 0 0 0 0 0 0 0 0 127 0"
                           result="hardAlpha"/>
            <feOffset dx="1.64994" dy="1.64994"/>
            <feComposite in2="hardAlpha" operator="out"/>
            <feColorMatrix type="matrix" values="0 0 0 0 0.301961 0 0 0 0 0.301961 0 0 0 0 0.301961 0 0 0 1 0"/>
            <feBlend mode="normal" in2="BackgroundImageFix" result="effect1_dropShadow_1294_15900"/>
            <feBlend mode="normal" in="SourceGraphic" in2="effect1_dropShadow_1294_15900" result="shape"/>
        </filter>
    </defs>
</svg>
