<svg width="26" height="27" viewBox="0 0 26 27" fill="none" xmlns="http://www.w3.org/2000/svg">
    <g clip-path="url(#clip0_1314_20039)">
        <path d="M13.457 25.5731C19.6129 25.5731 24.6034 20.5827 24.6034 14.4267C24.6034 8.27069 19.6129 3.28027 13.457 3.28027C7.30096 3.28027 2.31055 8.27069 2.31055 14.4267C2.31055 20.5827 7.30096 25.5731 13.457 25.5731Z"
              fill="#4D4D4D"/>
        <path d="M12.0585 23.9383C9.90072 23.9383 7.79136 23.2985 5.99721 22.0997C4.20306 20.9008 2.80468 19.1969 1.97892 17.2034C1.15316 15.2098 0.937109 13.0162 1.35808 10.8998C1.77904 8.78345 2.81813 6.83946 4.34393 5.31366C5.86974 3.78786 7.81373 2.74877 9.93008 2.3278C12.0464 1.90684 14.2401 2.12289 16.2336 2.94865C18.2272 3.77441 19.9311 5.17278 21.1299 6.96694C22.3287 8.76109 22.9686 10.8704 22.9686 13.0283C22.966 15.921 21.8157 18.6945 19.7702 20.74C17.7248 22.7854 14.9513 23.9357 12.0585 23.9383Z"
              fill="#58EDF9"/>
        <path d="M12.0586 2.37417C14.1686 2.37223 16.2317 2.99625 17.9869 4.16726C19.742 5.33828 21.1104 7.00366 21.9187 8.95264C22.7271 10.9016 22.9391 13.0466 22.5279 15.1161C22.1168 17.1856 21.1009 19.0867 19.609 20.5786C18.117 22.0706 16.216 23.0864 14.1465 23.4976C12.0769 23.9087 9.93197 23.6967 7.98299 22.8884C6.03401 22.08 4.36863 20.7117 3.19761 18.9565C2.0266 17.2013 1.40258 15.1382 1.40452 13.0282C1.40973 10.2042 2.53388 7.49733 4.53078 5.50043C6.52768 3.50353 9.23456 2.37938 12.0586 2.37417ZM12.0586 1.88184C9.85168 1.88184 7.69434 2.53639 5.85949 3.76269C4.02464 4.989 2.59473 6.73195 1.75062 8.77106C0.906525 10.8102 0.686169 13.0538 1.11743 15.2182C1.5487 17.3826 2.61221 19.3704 4.17342 20.9302C5.73464 22.4901 7.72341 23.5518 9.88816 23.9812C12.0529 24.4105 14.2964 24.1882 16.3347 23.3423C18.3731 22.4964 20.1148 21.0649 21.3395 19.229C22.5642 17.3931 23.2168 15.2352 23.2148 13.0282C23.2148 11.5637 22.9262 10.1134 22.3654 8.76043C21.8047 7.40744 20.9827 6.17823 19.9467 5.14306C18.9106 4.1079 17.6806 3.28706 16.3272 2.72748C14.9737 2.1679 13.5232 1.88055 12.0586 1.88184Z"
              fill="#4D4D4D"/>
        <path d="M12.0591 21.8516C16.9425 21.8516 20.9014 17.8927 20.9014 13.0093C20.9014 8.12582 16.9425 4.16699 12.0591 4.16699C7.17562 4.16699 3.2168 8.12582 3.2168 13.0093C3.2168 17.8927 7.17562 21.8516 12.0591 21.8516Z"
              fill="#4D4D4D"/>
        <path d="M12.0569 21.4566C10.4541 21.4566 8.88736 20.9813 7.55469 20.0909C6.22203 19.2004 5.18335 17.9348 4.56999 16.454C3.95664 14.9732 3.79615 13.3438 4.10884 11.7718C4.42153 10.1999 5.19334 8.75591 6.32667 7.62257C7.46001 6.48924 8.90397 5.71743 10.4759 5.40474C12.0479 5.09205 13.6773 5.25253 15.1581 5.86589C16.6389 6.47925 17.9045 7.51793 18.795 8.85059C19.6854 10.1833 20.1607 11.75 20.1607 13.3528C20.1607 14.417 19.9511 15.4708 19.5438 16.454C19.1366 17.4372 18.5397 18.3306 17.7872 19.0831C17.0347 19.8356 16.1413 20.4325 15.1581 20.8397C14.1749 21.247 13.1211 21.4566 12.0569 21.4566Z"
              fill="#58EDF9"/>
        <path d="M12.0589 5.49526C13.6169 5.49526 15.1399 5.95726 16.4354 6.82283C17.7308 7.6884 18.7404 8.91867 19.3366 10.3581C19.9329 11.7975 20.0889 13.3813 19.7849 14.9094C19.481 16.4374 18.7307 17.841 17.6291 18.9427C16.5274 20.0444 15.1238 20.7946 13.5957 21.0985C12.0677 21.4025 10.4838 21.2465 9.04443 20.6503C7.60504 20.0541 6.37477 19.0444 5.50919 17.749C4.64362 16.4536 4.18163 14.9306 4.18163 13.3726C4.18163 11.2834 5.01156 9.27976 6.48884 7.80248C7.96612 6.32519 9.96975 5.49526 12.0589 5.49526ZM12.0589 5.00293C10.4075 5.00293 8.7931 5.49265 7.41996 6.41015C6.04681 7.32766 4.97658 8.63174 4.34459 10.1575C3.7126 11.6833 3.54725 13.3622 3.86943 14.9819C4.19162 16.6016 4.98687 18.0894 6.15463 19.2572C7.3224 20.425 8.81022 21.2202 10.43 21.5424C12.0497 21.8646 13.7286 21.6992 15.2543 21.0672C16.7801 20.4353 18.0842 19.365 19.0017 17.9919C19.9192 16.6187 20.4089 15.0044 20.4089 13.3529C20.4089 11.1383 19.5292 9.0145 17.9633 7.44858C16.3973 5.88266 14.2735 5.00293 12.0589 5.00293Z"
              fill="#4D4D4D"/>
        <path d="M14.9445 19.005V17.144C14.7241 17.5695 14.4346 17.9555 14.0879 18.2862C13.7941 18.5357 13.4615 18.7353 13.1032 18.877C12.646 19.0412 12.1604 19.1116 11.6754 19.0838C11.3808 19.0802 11.0872 19.0472 10.7991 18.9854C10.506 18.9188 10.2193 18.8266 9.94244 18.7097C9.66136 18.5896 9.38836 18.4515 9.12516 18.2961C8.86792 18.1333 8.63006 17.9417 8.4162 17.725C7.8968 17.1938 7.48843 16.5645 7.21491 15.8738C6.93123 15.1432 6.79729 14.363 6.82105 13.5795C6.81835 13.0811 6.88126 12.5845 7.00813 12.1025C7.11085 11.6324 7.26953 11.1762 7.48077 10.7437C7.70328 10.3351 7.97439 9.95487 8.2882 9.61135C8.60203 9.28831 8.95614 9.00701 9.34179 8.77438C9.73459 8.53777 10.1545 8.34933 10.5923 8.21312C11.0502 8.08232 11.5242 8.01603 12.0004 8.01619C12.4991 8.00257 12.9961 8.0793 13.4675 8.24266C13.9588 8.43671 14.4095 8.72054 14.7968 9.07963H16.392V11.4724H14.1863C14.0221 11.1991 13.8161 10.9532 13.5758 10.7437C13.3815 10.5916 13.17 10.4627 12.9457 10.3597C12.6311 10.2431 12.2959 10.1928 11.961 10.212C11.5728 10.2087 11.1901 10.3035 10.8483 10.4877C10.5049 10.6655 10.203 10.9138 9.96213 11.2164C9.70584 11.5417 9.50612 11.9079 9.37133 12.2995C9.23104 12.7118 9.1579 13.144 9.1547 13.5795C9.15358 13.9978 9.22008 14.4134 9.35164 14.8104C9.48741 15.1988 9.69818 15.5568 9.97197 15.864C10.2228 16.1658 10.5349 16.4108 10.8877 16.5828C11.235 16.7487 11.6156 16.8329 12.0004 16.8289C12.4763 16.8362 12.9409 16.6837 13.3198 16.3957C13.7076 16.0831 13.9924 15.6611 14.1371 15.1846H12.0693V13.2152H17.0813V18.9854L14.9445 19.005Z"
              fill="#4D4D4D"/>
        <path d="M14.9445 17.8723V16.0113C14.7241 16.4368 14.4346 16.8228 14.0879 17.1535C13.7941 17.4029 13.4615 17.6025 13.1032 17.7443C12.646 17.9085 12.1604 17.9788 11.6754 17.9511C11.3808 17.9475 11.0872 17.9145 10.7991 17.8526C10.506 17.7861 10.2193 17.6938 9.94244 17.5769C9.65952 17.4609 9.38624 17.3226 9.12516 17.1634C8.86792 17.0005 8.63006 16.8089 8.4162 16.5923C7.8968 16.0611 7.48843 15.4318 7.21491 14.7411C6.93123 14.0104 6.79729 13.2302 6.82105 12.4468C6.81892 11.9484 6.88181 11.4519 7.00813 10.9698C7.12879 10.5076 7.30398 10.0614 7.53001 9.64052C7.75251 9.23189 8.02362 8.85168 8.33743 8.50816C8.65145 8.17403 9.00529 7.87971 9.39102 7.6318C9.78382 7.39519 10.2037 7.20675 10.6415 7.07054C11.0995 6.93974 11.5734 6.87346 12.0496 6.87361C12.5483 6.85999 13.0454 6.93672 13.5168 7.10009C14.008 7.29413 14.4588 7.57796 14.8461 7.93705H16.4412V10.3495H14.1863C14.0244 10.0717 13.8182 9.82228 13.5758 9.61098C13.3812 9.46202 13.1696 9.33643 12.9457 9.23681C12.6334 9.11114 12.2969 9.0573 11.961 9.07926C11.5733 9.08043 11.1917 9.175 10.8483 9.35497C10.5049 9.53277 10.203 9.78107 9.96213 10.0836C9.70584 10.409 9.50612 10.7751 9.37133 11.1668C9.2317 11.5793 9.15857 12.0113 9.1547 12.4468C9.16603 12.8736 9.24581 13.2958 9.39102 13.6973C9.51745 14.0786 9.71453 14.4327 9.97197 14.7411C10.2228 15.0429 10.5349 15.2879 10.8877 15.4599C11.2343 15.6289 11.6148 15.7164 12.0004 15.7159C12.4781 15.7243 12.944 15.5678 13.3198 15.2728C13.7076 14.9603 13.9924 14.5383 14.1371 14.0617H12.0693V12.0923H17.0813V17.8625L14.9445 17.8723Z"
              fill="#D7FFFF" stroke="#4D4D4D" stroke-width="0.295399" stroke-miterlimit="10"/>
    </g>
    <defs>
        <clipPath id="clip0_1314_20039">
            <rect width="23.7009" height="23.7009" fill="white" transform="translate(0.912109 1.88184)"/>
        </clipPath>
    </defs>
</svg>
