<svg width="28" height="28" viewBox="0 0 28 28" fill="none" xmlns="http://www.w3.org/2000/svg">
<path d="M14.4929 3.24115C16.1402 2.91792 19.2857 3.42466 20.2783 3.99776C21.3013 4.58834 23.4182 7.80914 18.5585 16.2263C13.8474 24.386 10.6021 24.9325 9.51177 24.9734C9.44838 24.9758 9.38523 24.9589 9.33045 24.9269C6.42632 23.2309 4.98886 21.3862 4.5498 20.5286C4.4996 20.4305 4.50753 20.3143 4.56261 20.2189L6.84785 16.2608C6.93775 16.1051 7.13103 16.0428 7.29493 16.1168L11.3546 17.9489C11.5185 18.0229 11.7118 17.9606 11.8017 17.8049L15.7879 10.9008C15.8778 10.7451 15.8351 10.5466 15.6891 10.4416L12.0725 7.84189C11.9265 7.73694 11.8838 7.53843 11.9737 7.3827L14.2714 3.40309C14.3193 3.32007 14.3989 3.25961 14.4929 3.24115Z" stroke="#2B2B2B" stroke-width="1.3125"/>
</svg>
