<svg width="18" height="18" viewBox="0 0 18 18" fill="none" xmlns="http://www.w3.org/2000/svg">
    <g filter="url(#filter0_d_1294_14879)">
        <path d="M11.5901 5.31561L10.3419 2.78641L10.3303 2.76282C10.221 2.54146 10.1207 2.33816 10.026 2.1824C9.93334 2.03005 9.78463 1.81437 9.53401 1.68795C9.19816 1.51854 8.80184 1.51854 8.46599 1.68795C8.21537 1.81437 8.06666 2.03005 7.97401 2.1824C7.87928 2.33816 7.77897 2.54146 7.66974 2.76282L7.6581 2.78641L6.40987 5.31561C6.3918 5.35222 6.37801 5.38014 6.36586 5.40413C6.3652 5.40541 6.36456 5.40667 6.36394 5.4079C6.36257 5.40812 6.36117 5.40834 6.35975 5.40856C6.33318 5.41271 6.30237 5.41719 6.26197 5.42306L3.47083 5.82864C3.46213 5.82991 3.45344 5.83117 3.44478 5.83242C3.20051 5.8679 2.97617 5.90048 2.79876 5.94244C2.62523 5.98348 2.37416 6.05826 2.17648 6.25754C1.91158 6.52461 1.78911 6.90153 1.84645 7.2733C1.88923 7.55071 2.0484 7.75879 2.16466 7.89399C2.28353 8.03221 2.44586 8.19043 2.62263 8.3627L2.64149 8.38109L4.66118 10.3498C4.69041 10.3783 4.71271 10.4 4.73176 10.419C4.73278 10.42 4.73378 10.421 4.73476 10.422C4.73454 10.4234 4.73432 10.4248 4.73409 10.4262C4.72983 10.4527 4.72457 10.4834 4.71767 10.5237L4.24089 13.3035L4.23643 13.3295C4.19469 13.5727 4.15635 13.7962 4.14143 13.9779C4.12684 14.1556 4.12038 14.4175 4.24882 14.6671C4.42096 15.0015 4.74158 15.2345 5.11287 15.2948C5.38993 15.3399 5.63701 15.2528 5.80152 15.184C5.96971 15.1137 6.17035 15.0081 6.38881 14.8933L6.41213 14.881L8.90859 13.5685C8.94473 13.5495 8.9723 13.5351 8.99623 13.5228C8.99751 13.5221 8.99877 13.5215 9 13.5209C9.00123 13.5215 9.00249 13.5221 9.00377 13.5228C9.0277 13.5351 9.05527 13.5495 9.09141 13.5685L11.5879 14.881L11.6111 14.8932C11.8296 15.0081 12.0303 15.1136 12.1985 15.184C12.363 15.2528 12.6101 15.3399 12.8871 15.2948C13.2584 15.2345 13.579 15.0015 13.7512 14.6671C13.8796 14.4175 13.8732 14.1556 13.8586 13.9779C13.8437 13.7962 13.8053 13.5728 13.7636 13.3295L13.7591 13.3035L13.2823 10.5237C13.2754 10.4834 13.2702 10.4527 13.2659 10.4262C13.2657 10.4248 13.2655 10.4234 13.2652 10.422C13.2662 10.421 13.2672 10.42 13.2682 10.419C13.2873 10.4 13.3096 10.3783 13.3388 10.3498L15.3585 8.38109L15.3774 8.3627C15.5541 8.19043 15.7165 8.03221 15.8353 7.89399C15.9516 7.75879 16.1108 7.55071 16.1536 7.2733C16.2109 6.90153 16.0884 6.52461 15.8235 6.25754C15.6258 6.05826 15.3748 5.98348 15.2012 5.94244C15.0238 5.90048 14.7995 5.8679 14.5552 5.83242L14.5292 5.82864L11.738 5.42306C11.6976 5.41719 11.6668 5.41271 11.6403 5.40856C11.6388 5.40834 11.6374 5.40812 11.6361 5.4079C11.6354 5.40667 11.6348 5.40541 11.6341 5.40413C11.622 5.38014 11.6082 5.35222 11.5901 5.31561Z"
              fill="#FF8066" stroke="#4D4D4D" stroke-width="1.3"/>
    </g>
    <defs>
        <filter id="filter0_d_1294_14879" x="1.18164" y="0.911133" width="16.6367" height="16.0889"
                filterUnits="userSpaceOnUse" color-interpolation-filters="sRGB">
            <feFlood flood-opacity="0" result="BackgroundImageFix"/>
            <feColorMatrix in="SourceAlpha" type="matrix" values="0 0 0 0 0 0 0 0 0 0 0 0 0 0 0 0 0 0 127 0"
                           result="hardAlpha"/>
            <feOffset dx="1" dy="1"/>
            <feComposite in2="hardAlpha" operator="out"/>
            <feColorMatrix type="matrix" values="0 0 0 0 0.301961 0 0 0 0 0.301961 0 0 0 0 0.301961 0 0 0 1 0"/>
            <feBlend mode="normal" in2="BackgroundImageFix" result="effect1_dropShadow_1294_14879"/>
            <feBlend mode="normal" in="SourceGraphic" in2="effect1_dropShadow_1294_14879" result="shape"/>
        </filter>
    </defs>
</svg>
