<svg width="24" height="24" viewBox="0 0 24 24" fill="none" xmlns="http://www.w3.org/2000/svg">
    <circle cx="13" cy="13" r="9.4" fill="#4D4D4D" stroke="#4D4D4D" stroke-width="0.8"/>
    <path d="M21.8012 12.0007C21.8012 17.4134 17.4136 21.8012 12.0012 21.8012C6.58878 21.8012 2.20117 17.4134 2.20117 12.0007C2.20117 6.58803 6.58878 2.2002 12.0012 2.2002C17.4136 2.2002 21.8012 6.58803 21.8012 12.0007Z"
          fill="#4D4D4D"/>
    <path d="M10.2 15.6C10.455 15.6 10.6689 15.5136 10.8417 15.3408C11.0145 15.168 11.1006 14.9544 11.1 14.7V9.3C11.1 9.045 11.0136 8.8311 10.8408 8.6583C10.668 8.4855 10.4544 8.3994 10.2 8.4C9.945 8.4 9.7311 8.4864 9.5583 8.6592C9.3855 8.832 9.2994 9.0456 9.3 9.3V14.7C9.3 14.955 9.3864 15.1689 9.5592 15.3417C9.732 15.5145 9.9456 15.6006 10.2 15.6ZM13.8 15.6C14.055 15.6 14.2689 15.5136 14.4417 15.3408C14.6145 15.168 14.7006 14.9544 14.7 14.7V9.3C14.7 9.045 14.6136 8.8311 14.4408 8.6583C14.268 8.4855 14.0544 8.3994 13.8 8.4C13.545 8.4 13.3311 8.4864 13.1583 8.6592C12.9855 8.832 12.8994 9.0456 12.9 9.3V14.7C12.9 14.955 12.9864 15.1689 13.1592 15.3417C13.332 15.5145 13.5456 15.6006 13.8 15.6ZM12 21C10.755 21 9.585 20.7636 8.49 20.2908C7.395 19.818 6.4425 19.1769 5.6325 18.3675C4.8225 17.5575 4.1814 16.605 3.7092 15.51C3.237 14.415 3.0006 13.245 3 12C3 10.755 3.2364 9.585 3.7092 8.49C4.182 7.395 4.8231 6.4425 5.6325 5.6325C6.4425 4.8225 7.395 4.1814 8.49 3.7092C9.585 3.237 10.755 3.0006 12 3C13.245 3 14.415 3.2364 15.51 3.7092C16.605 4.182 17.5575 4.8231 18.3675 5.6325C19.1775 6.4425 19.8189 7.395 20.2917 8.49C20.7645 9.585 21.0006 10.755 21 12C21 13.245 20.7636 14.415 20.2908 15.51C19.818 16.605 19.1769 17.5575 18.3675 18.3675C17.5575 19.1775 16.605 19.8189 15.51 20.2917C14.415 20.7645 13.245 21.0006 12 21Z"
          fill="#FF8066"/>
</svg>
