<svg width="25" height="25" viewBox="0 0 25 25" fill="none" xmlns="http://www.w3.org/2000/svg">
    <circle cx="12.5" cy="12.5" r="12.5" fill="#2B2B2B"/>
    <path d="M19.9855 8.87125C20.5613 8.2955 20.5613 7.43186 19.9855 6.8561L17.3946 4.26519C16.8188 3.68943 15.9552 3.68943 15.3794 4.26519L4.58398 15.0606V19.6667H9.19004L19.9855 8.87125ZM16.387 5.27277L18.9779 7.86368L16.8188 10.0228L14.2279 7.43186L16.387 5.27277ZM6.02338 18.2273V15.6364L13.2203 8.43943L15.8113 11.0303L8.61429 18.2273H6.02338Z"
          fill="white"/>
    <path d="M19.9855 8.87125C20.5613 8.2955 20.5613 7.43186 19.9855 6.8561L17.3946 4.26519C16.8188 3.68943 15.9552 3.68943 15.3794 4.26519L4.58398 15.0606V19.6667H9.19004L19.9855 8.87125ZM16.387 5.27277L18.9779 7.86368L16.8188 10.0228L14.2279 7.43186L16.387 5.27277ZM6.02338 18.2273V15.6364L13.2203 8.43943L15.8113 11.0303L8.61429 18.2273H6.02338Z"
          stroke="#2B2B2B"/>
</svg>
