<svg width="18" height="18" viewBox="0 0 18 18" fill="none" xmlns="http://www.w3.org/2000/svg">
<g clip-path="url(#clip0_1700_26861)">
<path d="M6.2325 4.84945H2.62219C3.51671 3.47478 4.83154 2.42598 6.37071 1.85939C7.90987 1.2928 9.59093 1.23875 11.1633 1.70531C12.7357 2.17186 14.1152 3.13404 15.0962 4.44841C16.0772 5.76278 16.6071 7.35896 16.607 8.99902H17.9902C17.9922 7.14934 17.4235 5.34409 16.3618 3.82942C15.3001 2.31475 13.797 1.16439 12.0576 0.535187C10.3181 -0.0940135 8.42687 -0.171425 6.6418 0.313508C4.85672 0.798441 3.26467 1.82212 2.08271 3.24495V0.699877H0.699449V6.23264H6.2325V4.84945ZM11.7656 13.1486H15.3759C14.4814 14.5233 13.1665 15.5721 11.6274 16.1387C10.0882 16.7052 8.40714 16.7593 6.83475 16.2927C5.26237 15.8262 3.88288 14.864 2.90189 13.5496C1.92091 12.2353 1.39098 10.6391 1.39108 8.99902H0.00781727C0.00591279 10.8487 0.574582 12.654 1.63628 14.1686C2.69799 15.6833 4.20105 16.8337 5.94051 17.4629C7.67998 18.0921 9.57119 18.1695 11.3563 17.6845C13.1413 17.1996 14.7334 16.1759 15.9154 14.7531V17.2982H17.2986V11.7654H11.7656V13.1486Z" fill="#2B2B2B"/>
</g>
<defs>
<clipPath id="clip0_1700_26861">
<rect width="18" height="18.001" fill="white" transform="translate(0 -0.000976562)"/>
</clipPath>
</defs>
</svg>
