<svg width="20" height="20" viewBox="0 0 20 20" fill="none" xmlns="http://www.w3.org/2000/svg">
    <g clip-path="url(#clip0_1646_1908)">
        <path d="M1.18555 10.007C1.18555 11.7517 1.70291 13.4572 2.67223 14.9079C3.64154 16.3586 5.01926 17.4892 6.63116 18.1569C8.24307 18.8246 10.0168 18.9993 11.728 18.6589C13.4391 18.3185 15.011 17.4784 16.2447 16.2447C17.4784 15.011 18.3185 13.4391 18.6589 11.728C18.9993 10.0168 18.8246 8.24307 18.1569 6.63117C17.4892 5.01926 16.3586 3.64154 14.9079 2.67223C13.4572 1.70292 11.7517 1.18555 10.007 1.18555C7.47994 1.18276 5.04925 2.15503 3.22126 3.89984"
              stroke="#2B2B2B" stroke-width="1.35714" stroke-linecap="round" stroke-linejoin="round"/>
        <path d="M3.90123 1.18579L3.22266 3.90008L5.93694 4.57865M10.0084 5.25722V10.6858L6.4798 12.4501"
              stroke="#2B2B2B" stroke-width="1.35714" stroke-linecap="round" stroke-linejoin="round"/>
    </g>
    <defs>
        <clipPath id="clip0_1646_1908">
            <rect width="19" height="19" fill="white" transform="translate(0.5 0.5)"/>
        </clipPath>
    </defs>
</svg>
