<svg width="28" height="28" viewBox="0 0 28 28" fill="none" xmlns="http://www.w3.org/2000/svg">
    <g clip-path="url(#clip0_1314_19952)">
        <path d="M14.7628 26.9885C21.516 26.9885 26.9905 21.514 26.9905 14.7609C26.9905 8.00772 21.516 2.5332 14.7628 2.5332C8.00967 2.5332 2.53516 8.00772 2.53516 14.7609C2.53516 21.514 8.00967 26.9885 14.7628 26.9885Z"
              fill="#404040"/>
        <path d="M13.2282 25.1947C10.8611 25.1947 8.54709 24.4927 6.5789 23.1776C4.6107 21.8625 3.07667 19.9933 2.17081 17.8064C1.26495 15.6194 1.02794 13.213 1.48974 10.8913C1.95155 8.56967 3.09143 6.4371 4.76524 4.76329C6.43906 3.08947 8.57163 1.94959 10.8933 1.48779C13.2149 1.02598 15.6214 1.263 17.8083 2.16886C19.9953 3.07472 21.8645 4.60875 23.1796 6.57694C24.4947 8.54514 25.1966 10.8591 25.1966 13.2262C25.1938 16.3996 23.9319 19.4421 21.688 21.686C19.4441 23.9299 16.4015 25.1918 13.2282 25.1947Z"
              fill="#58EDF9"/>
        <path d="M13.2287 1.53912C15.5433 1.53698 17.8066 2.22154 19.732 3.50615C21.6575 4.79076 23.1586 6.61769 24.0453 8.75573C24.9321 10.8938 25.1647 13.2468 24.7136 15.5171C24.2626 17.7874 23.1482 19.8728 21.5115 21.5095C19.8748 23.1462 17.7894 24.2606 15.5191 24.7116C13.2488 25.1627 10.8958 24.9301 8.75774 24.0433C6.6197 23.1566 4.79277 21.6555 3.50816 19.73C2.22355 17.8046 1.53899 15.5413 1.54113 13.2267C1.54684 10.1287 2.78004 7.15925 4.97065 4.96864C7.16126 2.77803 10.1307 1.54483 13.2287 1.53912ZM13.2287 0.999028C10.8077 0.999029 8.44109 1.71708 6.42825 3.06234C4.41542 4.40759 2.84679 6.31962 1.9208 8.55654C0.994821 10.7935 0.75309 13.2548 1.22619 15.6291C1.69929 18.0034 2.86597 20.1841 4.57863 21.8952C6.29129 23.6064 8.47298 24.7711 10.8477 25.2421C13.2225 25.7131 15.6836 25.4692 17.9197 24.5413C20.1558 23.6133 22.0664 22.043 23.4099 20.029C24.7534 18.0149 25.4693 15.6477 25.4672 13.2267C25.4672 11.62 25.1505 10.0291 24.5354 8.54487C23.9202 7.06064 23.0185 5.71219 21.882 4.57661C20.7454 3.44102 19.3961 2.54056 17.9113 1.9267C16.4266 1.31284 14.8354 0.997609 13.2287 0.999028Z"
              fill="#404040"/>
        <path d="M13.2293 22.9059C18.5865 22.9059 22.9294 18.5631 22.9294 13.2059C22.9294 7.84872 18.5865 3.50586 13.2293 3.50586C7.87215 3.50586 3.5293 7.84872 3.5293 13.2059C3.5293 18.5631 7.87215 22.9059 13.2293 22.9059Z"
              fill="#404040"/>
        <path d="M13.39 22.9744C11.5328 22.9744 9.71738 22.4236 8.1732 21.3918C6.62902 20.36 5.42548 18.8934 4.71478 17.1775C4.00407 15.4616 3.81812 13.5735 4.18043 11.7519C4.54275 9.9303 5.43706 8.25707 6.75027 6.94378C8.06349 5.63049 9.73662 4.73613 11.5581 4.3738C13.3796 4.01146 15.2676 4.19743 16.9834 4.90817C18.6992 5.61892 20.1657 6.82253 21.1975 8.36679C22.2293 9.91105 22.78 11.7266 22.78 13.5839C22.78 14.8171 22.5371 16.0382 22.0652 17.1775C21.5933 18.3168 20.9017 19.352 20.0297 20.224C19.1578 21.096 18.1226 21.7877 16.9834 22.2596C15.8442 22.7315 14.6231 22.9744 13.39 22.9744Z"
              fill="#0DC8D9"/>
        <path d="M16.4478 19.5595V17.3501C16.1862 17.8552 15.8425 18.3135 15.4308 18.7061C15.0821 19.0022 14.6873 19.2392 14.2619 19.4075C13.7191 19.6024 13.1427 19.6859 12.5669 19.653C12.2171 19.6487 11.8686 19.6096 11.5265 19.5361C11.1786 19.4571 10.8383 19.3476 10.5096 19.2088C10.1737 19.071 9.84926 18.9068 9.53932 18.7178C9.23393 18.5245 8.95156 18.297 8.69768 18.0398C8.08106 17.4092 7.59626 16.6621 7.27155 15.8421C6.93478 14.9747 6.77577 14.0484 6.80397 13.1183C6.80145 12.5267 6.87611 11.9372 7.02607 11.3648C7.16931 10.8161 7.37728 10.2863 7.64562 9.7867C7.90976 9.30158 8.23161 8.85019 8.60416 8.44236C8.97694 8.04568 9.39701 7.69627 9.85494 7.40195C10.3212 7.12105 10.8197 6.89733 11.3395 6.73563C11.8831 6.58034 12.4457 6.50164 13.0111 6.50183C13.6032 6.48566 14.1932 6.57675 14.7528 6.7707C15.336 7.00107 15.8712 7.33803 16.3309 7.76434H18.2246V10.6284H15.5477C15.3555 10.2986 15.1107 10.0025 14.823 9.75163C14.5919 9.57478 14.3408 9.42569 14.0749 9.30741C13.7042 9.15822 13.3046 9.0943 12.9059 9.12037C12.4457 9.12176 11.9926 9.23404 11.585 9.44769C11.1773 9.65878 10.8188 9.95356 10.5329 10.3127C10.2287 10.699 9.99158 11.1337 9.83156 11.5986C9.66579 12.0884 9.57898 12.6013 9.57439 13.1183C9.58783 13.625 9.68255 14.1263 9.85494 14.603C10.005 15.0556 10.239 15.476 10.5446 15.8421C10.8424 16.2004 11.213 16.4913 11.6317 16.6954C12.0431 16.8961 12.495 17 12.9527 16.9994C13.5197 17.0094 14.0729 16.8236 14.5191 16.4733C14.9794 16.1023 15.3175 15.6013 15.4893 15.0355H13.0345V12.6975H18.9845V19.5478L16.4478 19.5595Z"
              fill="#D7FFFF"/>
    </g>
    <defs>
        <clipPath id="clip0_1314_19952">
            <rect width="26" height="26" fill="white" transform="translate(1 1)"/>
        </clipPath>
    </defs>
</svg>
