<svg width="25" height="24" viewBox="0 0 25 24" fill="none" xmlns="http://www.w3.org/2000/svg">
    <circle cx="13" cy="13" r="9.4" fill="#4D4D4D" stroke="#4D4D4D" stroke-width="0.8"/>
    <path d="M21.8012 12.0007C21.8012 17.4134 17.4136 21.8012 12.0012 21.8012C6.58878 21.8012 2.20117 17.4134 2.20117 12.0007C2.20117 6.58803 6.58878 2.2002 12.0012 2.2002C17.4136 2.2002 21.8012 6.58803 21.8012 12.0007Z"
          fill="#4D4D4D"/>
    <path d="M12 21C10.22 21 8.47991 20.4722 6.99987 19.4832C5.51983 18.4943 4.36628 17.0887 3.68509 15.4442C3.0039 13.7996 2.82567 11.99 3.17294 10.2442C3.5202 8.49836 4.37737 6.89472 5.63604 5.63604C6.89471 4.37737 8.49836 3.5202 10.2442 3.17294C11.99 2.82567 13.7996 3.0039 15.4442 3.68509C17.0887 4.36628 18.4943 5.51983 19.4832 6.99987C20.4722 8.47991 21 10.22 21 12C20.997 14.386 20.0479 16.6735 18.3607 18.3607C16.6735 20.0479 14.386 20.997 12 21ZM15.1535 11.4237L10.9996 8.65443C10.8857 8.57892 10.7521 8.53859 10.6154 8.53846C10.4318 8.53846 10.2557 8.6114 10.1259 8.74124C9.99602 8.87107 9.92308 9.04716 9.92308 9.23077V14.7692C9.923 14.8946 9.95696 15.0176 10.0213 15.1252C10.0857 15.2328 10.1781 15.3209 10.2886 15.38C10.3992 15.4392 10.5237 15.4672 10.6489 15.4612C10.7741 15.4551 10.8953 15.4152 10.9996 15.3456L15.1535 12.5763C15.2484 12.5132 15.3263 12.4275 15.3802 12.3269C15.434 12.2264 15.4622 12.1141 15.4622 12C15.4622 11.8859 15.434 11.7736 15.3802 11.6731C15.3263 11.5725 15.2484 11.4869 15.1535 11.4237Z"
          fill="#FF8066"/>
</svg>
