<svg width="21" height="21" viewBox="0 0 21 21" fill="none" xmlns="http://www.w3.org/2000/svg">
    <circle cx="11" cy="11" r="9.4" fill="#4D4D4D" stroke="#4D4D4D" stroke-width="0.8"/>
    <path d="M19.8012 10.0007C19.8012 15.4134 15.4136 19.8012 10.0012 19.8012C4.58878 19.8012 0.201172 15.4134 0.201172 10.0007C0.201172 4.58803 4.58878 0.200195 10.0012 0.200195C15.4136 0.200195 19.8012 4.58803 19.8012 10.0007Z"
          fill="#4D4D4D"/>
    <path d="M8.2 13.6C8.455 13.6 8.6689 13.5136 8.8417 13.3408C9.0145 13.168 9.1006 12.9544 9.1 12.7V7.3C9.1 7.045 9.0136 6.8311 8.8408 6.6583C8.668 6.4855 8.4544 6.3994 8.2 6.4C7.945 6.4 7.7311 6.4864 7.5583 6.6592C7.3855 6.832 7.2994 7.0456 7.3 7.3V12.7C7.3 12.955 7.3864 13.1689 7.5592 13.3417C7.732 13.5145 7.9456 13.6006 8.2 13.6ZM11.8 13.6C12.055 13.6 12.2689 13.5136 12.4417 13.3408C12.6145 13.168 12.7006 12.9544 12.7 12.7V7.3C12.7 7.045 12.6136 6.8311 12.4408 6.6583C12.268 6.4855 12.0544 6.3994 11.8 6.4C11.545 6.4 11.3311 6.4864 11.1583 6.6592C10.9855 6.832 10.8994 7.0456 10.9 7.3V12.7C10.9 12.955 10.9864 13.1689 11.1592 13.3417C11.332 13.5145 11.5456 13.6006 11.8 13.6ZM10 19C8.755 19 7.585 18.7636 6.49 18.2908C5.395 17.818 4.4425 17.1769 3.6325 16.3675C2.8225 15.5575 2.1814 14.605 1.7092 13.51C1.237 12.415 1.0006 11.245 1 10C1 8.755 1.2364 7.585 1.7092 6.49C2.182 5.395 2.8231 4.4425 3.6325 3.6325C4.4425 2.8225 5.395 2.1814 6.49 1.7092C7.585 1.237 8.755 1.0006 10 1C11.245 1 12.415 1.2364 13.51 1.7092C14.605 2.182 15.5575 2.8231 16.3675 3.6325C17.1775 4.4425 17.8189 5.395 18.2917 6.49C18.7645 7.585 19.0006 8.755 19 10C19 11.245 18.7636 12.415 18.2908 13.51C17.818 14.605 17.1769 15.5575 16.3675 16.3675C15.5575 17.1775 14.605 17.8189 13.51 18.2917C12.415 18.7645 11.245 19.0006 10 19Z"
          fill="#FF8066"/>
</svg>
